<svg width="1379" height="459" viewBox="0 0 1379 459" fill="none" xmlns="http://www.w3.org/2000/svg">
<path d="M689.5 0.5C879.861 0.5 1052.18 26.1831 1176.89 67.6934C1239.25 88.4493 1289.68 113.154 1324.51 140.562C1359.34 167.974 1378.5 198.032 1378.5 229.5C1378.5 260.968 1359.34 291.026 1324.51 318.438C1289.68 345.846 1239.25 370.551 1176.89 391.307C1052.18 432.817 879.861 458.5 689.5 458.5C499.139 458.5 326.819 432.817 202.107 391.307C139.749 370.551 89.3211 345.846 54.4932 318.438C19.6597 291.026 0.5 260.968 0.5 229.5C0.5 198.032 19.6597 167.974 54.4932 140.562C89.3211 113.154 139.749 88.4493 202.107 67.6934C326.819 26.1831 499.139 0.5 689.5 0.5Z" stroke="url(#paint0_linear_203_254)"/>
<defs>
<linearGradient id="paint0_linear_203_254" x1="1379" y1="459" x2="3.21207e-06" y2="459" gradientUnits="userSpaceOnUse">
<stop stop-color="white" stop-opacity="0"/>
<stop offset="0.49" stop-color="white"/>
<stop offset="1" stop-color="white" stop-opacity="0"/>
</linearGradient>
</defs>
</svg>
