<svg width="79" height="52" viewBox="0 0 79 52" fill="none" xmlns="http://www.w3.org/2000/svg">
<path d="M49.4634 30V29.5H0V30V30.5H49.4634V30Z" fill="black"/>
<path d="M2.835 21L0.69 21.045C0.63 20.865 0.63 20.685 0.69 20.505L1.935 20.34C1.975 19.83 1.995 19.24 1.995 18.57V9.72L0.78 9.57C0.74 9.42 0.74 9.235 0.78 9.015C1.33 9.055 2.015 9.075 2.835 9.075C3.565 9.075 4.255 9.06 4.905 9.03C4.965 9.21 4.965 9.39 4.905 9.57L3.66 9.75C3.62 10.13 3.6 10.715 3.6 11.505V20.235H8.55L9.255 17.52C9.405 17.48 9.59 17.48 9.81 17.52L9.795 21H2.835ZM13.3007 15.42V20.235L14.5157 20.46C14.5257 20.51 14.5307 20.555 14.5307 20.595C14.5407 20.635 14.5457 20.68 14.5457 20.73C14.5457 20.78 14.5407 20.835 14.5307 20.895C14.5307 20.945 14.5257 21 14.5157 21.06C13.8857 21.03 13.2407 21.015 12.5807 21.015C12.3507 21.015 12.0707 21.015 11.7407 21.015C11.4207 21.025 11.0507 21.035 10.6307 21.045C10.6007 20.955 10.5857 20.86 10.5857 20.76C10.5857 20.67 10.6007 20.57 10.6307 20.46L11.8157 20.295C11.8357 20.015 11.8507 19.72 11.8607 19.41C11.8707 19.09 11.8757 18.75 11.8757 18.39V15.195C11.8757 14.535 11.8607 14.045 11.8307 13.725L10.6457 13.575C10.6257 13.525 10.6157 13.44 10.6157 13.32C10.6157 13.27 10.6157 13.22 10.6157 13.17C10.6157 13.12 10.6257 13.065 10.6457 13.005C11.3257 12.965 12.1857 12.86 13.2257 12.69C13.3157 12.79 13.3657 12.89 13.3757 12.99C13.3257 13.27 13.3007 14.08 13.3007 15.42ZM11.1107 10.065C11.0907 10.015 11.0807 9.965 11.0807 9.915C11.0807 9.855 11.0807 9.8 11.0807 9.75C11.0807 9.48 11.1907 9.265 11.4107 9.105C11.6407 8.935 11.9207 8.85 12.2507 8.85C12.5607 8.85 12.8107 8.945 13.0007 9.135C13.2007 9.315 13.3007 9.565 13.3007 9.885C13.3007 10.145 13.1857 10.355 12.9557 10.515C12.7357 10.675 12.4507 10.755 12.1007 10.755C11.8607 10.755 11.6457 10.695 11.4557 10.575C11.2757 10.455 11.1607 10.285 11.1107 10.065ZM16.6242 21.165C16.7142 21.205 16.7892 21.29 16.8492 21.42C16.5192 21.69 16.3542 22.095 16.3542 22.635C16.3542 23.115 16.5742 23.5 17.0142 23.79C17.4542 24.08 18.0242 24.225 18.7242 24.225C19.4442 24.225 20.0442 24.09 20.5242 23.82C21.0042 23.56 21.2442 23.19 21.2442 22.71C21.2442 22.19 21.1492 21.805 20.9592 21.555C20.7692 21.315 20.3892 21.17 19.8192 21.12L17.0142 20.865C16.7042 20.825 16.4442 20.665 16.2342 20.385C16.0342 20.095 15.9342 19.815 15.9342 19.545L16.9392 17.88C16.4792 17.62 16.1292 17.275 15.8892 16.845C15.6592 16.415 15.5442 15.975 15.5442 15.525C15.5442 14.675 15.8592 13.99 16.4892 13.47C17.1192 12.95 17.8442 12.69 18.6642 12.69C19.4542 12.69 20.1492 12.9 20.7492 13.32C20.7992 11.95 21.3092 11.24 22.2792 11.19C22.5392 11.25 22.6692 11.465 22.6692 11.835C22.6692 12.035 22.6492 12.255 22.6092 12.495C22.2192 12.525 21.8992 12.655 21.6492 12.885C21.3992 13.105 21.2192 13.36 21.1092 13.65C21.6092 14.15 21.8592 14.775 21.8592 15.525C21.8592 16.315 21.5392 16.975 20.8992 17.505C20.2592 18.025 19.5142 18.285 18.6642 18.285C18.2142 18.285 17.8092 18.225 17.4492 18.105L16.9392 19.44L20.6742 19.815C21.2542 19.885 21.6942 20.1 21.9942 20.46C22.3042 20.81 22.4592 21.27 22.4592 21.84C22.4592 22.84 22.0992 23.605 21.3792 24.135C20.6592 24.675 19.6842 24.945 18.4542 24.945C17.4342 24.945 16.6392 24.76 16.0692 24.39C15.4992 24.02 15.2142 23.525 15.2142 22.905C15.2142 22.485 15.3492 22.11 15.6192 21.78C15.8892 21.46 16.2242 21.255 16.6242 21.165ZM16.8942 15.525C16.8942 16.105 17.0542 16.6 17.3742 17.01C17.7042 17.42 18.1392 17.625 18.6792 17.625C19.2092 17.625 19.6442 17.425 19.9842 17.025C20.3242 16.615 20.4942 16.115 20.4942 15.525C20.4942 14.885 20.3242 14.355 19.9842 13.935C19.6542 13.505 19.2192 13.29 18.6792 13.29C18.1692 13.29 17.7442 13.505 17.4042 13.935C17.0642 14.365 16.8942 14.895 16.8942 15.525ZM25.5404 11.19V13.335H27.6554C27.6754 13.455 27.6854 13.545 27.6854 13.605C27.6854 13.695 27.6754 13.8 27.6554 13.92L25.5404 14.235V18.36C25.5404 19.1 25.6054 19.625 25.7354 19.935C25.8754 20.235 26.0904 20.385 26.3804 20.385C26.6404 20.385 27.0454 20.28 27.5954 20.07C27.6954 20.16 27.7654 20.33 27.8054 20.58C27.5054 20.76 27.2754 20.895 27.1154 20.985C26.9654 21.065 26.7704 21.135 26.5304 21.195C26.3004 21.265 26.0554 21.3 25.7954 21.3C25.2954 21.3 24.8854 21.11 24.5654 20.73C24.2554 20.34 24.1004 19.75 24.1004 18.96V14.055L23.0504 13.92C23.0304 13.82 23.0204 13.735 23.0204 13.665C23.0204 13.585 23.0304 13.475 23.0504 13.335C23.3304 13.285 23.5704 13.2 23.7704 13.08C23.9804 12.95 24.1554 12.775 24.2954 12.555C24.4354 12.325 24.5404 12.125 24.6104 11.955C24.6904 11.775 24.7854 11.52 24.8954 11.19C24.9854 11.16 25.0954 11.145 25.2254 11.145C25.3454 11.145 25.4504 11.16 25.5404 11.19ZM29.5671 11.265C29.5671 10.605 29.5521 10.115 29.5221 9.795L28.3371 9.645C28.2971 9.495 28.2971 9.305 28.3371 9.075C29.0071 9.025 29.8621 8.92 30.9021 8.76C30.9921 8.86 31.0421 8.96 31.0521 9.06C31.0021 9.32 30.9771 10.13 30.9771 11.49V14.325C31.7171 13.305 32.6071 12.795 33.6471 12.795C34.2671 12.795 34.7971 12.95 35.2371 13.26C35.6771 13.57 35.8971 14.1 35.8971 14.85V20.235L37.1121 20.46C37.1521 20.62 37.1521 20.82 37.1121 21.06C36.4821 21.03 35.8421 21.015 35.1921 21.015C34.7321 21.015 34.0821 21.025 33.2421 21.045C33.1821 20.855 33.1821 20.66 33.2421 20.46L34.4271 20.295C34.4671 19.745 34.4871 19.11 34.4871 18.39V15.6C34.4871 14.9 34.3971 14.395 34.2171 14.085C34.0471 13.775 33.7321 13.62 33.2721 13.62C32.8921 13.62 32.4921 13.76 32.0721 14.04C31.6621 14.32 31.2971 14.725 30.9771 15.255V20.235L32.1921 20.46C32.2321 20.62 32.2321 20.82 32.1921 21.06C31.5621 21.03 30.9221 21.015 30.2721 21.015C29.8121 21.015 29.1621 21.025 28.3221 21.045C28.2621 20.855 28.2621 20.66 28.3221 20.46L29.5071 20.295C29.5471 19.745 29.5671 19.11 29.5671 18.39V11.265Z" fill="black"/>
<path d="M38 5.00256L49.4634 5V16.121" stroke="black"/>
<path d="M74.4634 34.9219L74.7541 36.3934L78.9737 35.5599L75.1508 33.5887L74.4634 34.9219ZM61.6499 37.4531L61.3592 35.9816L60.7882 36.0944L60.4428 36.5627L61.6499 37.4531ZM53.8706 48L52.4111 48.3463L53.1579 51.4932L55.0778 48.8904L53.8706 48ZM47.4634 21L48.1508 19.6668L45.2505 18.1713L46.0039 21.3463L47.4634 21ZM74.4634 34.9219L74.1727 33.4503L61.3592 35.9816L61.6499 37.4531L61.9406 38.9247L74.7541 36.3934L74.4634 34.9219ZM61.6499 37.4531L60.4428 36.5627L52.6635 47.1096L53.8706 48L55.0778 48.8904L62.8571 38.3435L61.6499 37.4531ZM53.8706 48L55.3301 47.6537L48.9228 20.6537L47.4634 21L46.0039 21.3463L52.4111 48.3463L53.8706 48ZM47.4634 21L46.7759 22.3332L73.7759 36.2551L74.4634 34.9219L75.1508 33.5887L48.1508 19.6668L47.4634 21Z" fill="black"/>
</svg>
