<svg width="1454" height="1422" viewBox="0 0 1454 1422" fill="none" xmlns="http://www.w3.org/2000/svg">
<rect width="1454" height="1421.5" fill="#F66D4F"/>
<path d="M565.604 598.5L668.697 488.5H979.979L981.98 667L897.404 748.5L922.427 773L1004 937.5H948.95L855.366 841V866.5L785.803 937.5H577.615V737L548.089 707.5V907.5L450 815.5V484L565.604 598.5ZM567.606 623.5L470.019 529V807L531.573 865.5V667L577.114 711.5L595.131 694V915H778.797L837.85 859.5V801.5L955.456 919.5H973.973L906.412 788L740.763 623V569.5H895.402V641L843.355 694L885.894 736.5L961.962 660V509H673.201L567.606 623.5ZM672.201 643.5L822.837 794L767.286 848H653.184V610L672.201 587.5V643.5ZM672.701 830.5H758.278L796.813 792L672.701 668V830.5ZM759.279 612.5L830.844 681L879.888 631.5V589.5H759.279V612.5Z" fill="white"/>
</svg>
