<svg width="1000" height="1000" fill="none" xmlns="http://www.w3.org/2000/svg"><path d="M500 50c248.528 0 450 201.472 450 450S748.528 950 500 950 50 748.528 50 500 251.472 50 500 50z" fill="#fff" stroke="url(#a)" stroke-width="100"/><mask id="b" maskUnits="userSpaceOnUse" x="135" y="177" width="740" height="625" fill="#000"><path fill="#fff" d="M135 177h740v625H135z"/><path d="m296.07 357.675 130.262-138.989h393.315l2.53 225.542-106.865 102.978 31.617 30.957L850 786.015h-69.558L662.195 664.083v32.221L574.3 786.015H311.247v-253.34L273.938 495.4v252.708L150 631.863V213l146.07 144.675zm2.53 31.589L175.294 269.859v351.264l77.777 73.917V444.228l57.543 56.227 22.765-22.112v279.242h232.068l74.616-70.126v-73.285l148.6 149.097h23.397l-85.367-166.156L517.39 388.632v-67.6h195.392v90.344l-65.763 66.967 53.749 53.7 96.116-96.66V244.589H432.023L298.6 389.264zm132.159 25.27 190.334 190.163-70.19 68.231H406.729V372.206l24.03-28.43v70.758zm.632 236.282h108.13l48.69-48.646-156.82-156.679v205.325zm109.395-275.452 90.425 86.553 61.969-62.545v-53.068H540.786v29.06z"/></mask><path d="m296.07 357.675 130.262-138.989h393.315l2.53 225.542-106.865 102.978 31.617 30.957L850 786.015h-69.558L662.195 664.083v32.221L574.3 786.015H311.247v-253.34L273.938 495.4v252.708L150 631.863V213l146.07 144.675zm2.53 31.589L175.294 269.859v351.264l77.777 73.917V444.228l57.543 56.227 22.765-22.112v279.242h232.068l74.616-70.126v-73.285l148.6 149.097h23.397l-85.367-166.156L517.39 388.632v-67.6h195.392v90.344l-65.763 66.967 53.749 53.7 96.116-96.66V244.589H432.023L298.6 389.264zm132.159 25.27 190.334 190.163-70.19 68.231H406.729V372.206l24.03-28.43v70.758zm.632 236.282h108.13l48.69-48.646-156.82-156.679v205.325zm109.395-275.452 90.425 86.553 61.969-62.545v-53.068H540.786v29.06z" fill="#000"/><path d="m296.07 357.675-10.555 10.657 10.955 10.851 10.545-11.251-10.945-10.257zm130.262-138.989v-15h-6.5l-4.445 4.742 10.945 10.258zm393.315 0 15-.169-.167-14.831h-14.833v15zm2.53 225.542 10.408 10.801 4.663-4.494-.072-6.476-14.999.169zM715.312 547.206l-10.409-10.801-11.12 10.715 11.034 10.804 10.495-10.718zm31.617 30.957 13.438-6.664-1.129-2.276-1.815-1.778-10.494 10.718zM850 786.015v15h24.181l-10.743-21.664L850 786.015zm-69.558 0-10.768 10.442 4.42 4.558h6.348v-15zM662.195 664.083l10.768-10.443-25.768-26.571v37.014h15zm0 32.221 10.715 10.497 4.285-4.374v-6.123h-15zM574.3 786.015v15h6.303l4.411-4.503-10.714-10.497zm-263.053 0h-15v15h15v-15zm0-253.34h15v-6.217l-4.398-4.395-10.602 10.612zM273.938 495.4l10.602-10.611-25.602-25.578V495.4h15zm0 252.708-10.261 10.941 25.261 23.694v-34.635h-15zM150 631.863h-15v6.497l4.738 4.444L150 631.863zM150 213l10.556-10.657L135 177.031V213h15zm148.6 176.264-10.435 10.775 11.041 10.692 10.42-11.298-11.026-10.169zM175.294 269.859l10.435-10.775-25.435-24.63v35.405h15zm0 351.264h-15v6.438l4.667 4.435 10.333-10.873zm77.777 73.917-10.333 10.873 25.333 24.076V695.04h-15zm0-250.812 10.484-10.729-25.484-24.901v35.63h15zm57.543 56.227-10.483 10.729 10.452 10.213 10.483-10.182-10.452-10.76zm22.765-22.112h15v-35.482l-25.451 24.722 10.451 10.76zm0 279.242h-15v15h15v-15zm232.068 0v15h5.943l4.33-4.07-10.273-10.93zm74.616-70.126 10.273 10.93 4.727-4.443v-6.487h-15zm0-73.285 10.625-10.589-25.625-25.71v36.299h15zm148.6 149.097-10.624 10.588 4.396 4.412h6.228v-15zm23.397 0v15h24.57l-11.228-21.855-13.342 6.855zm-85.367-166.156 13.342-6.855-1.08-2.103-1.676-1.669-10.586 10.627zM517.39 388.632h-15v6.23l4.414 4.397 10.586-10.627zm0-67.6v-15h-15v15h15zm195.392 0h15v-15h-15v15zm0 90.344 10.703 10.51 4.297-4.376v-6.134h-15zm-65.763 66.967-10.703-10.51-10.42 10.61 10.521 10.511 10.602-10.611zm53.749 53.7-10.602 10.611 10.636 10.627 10.602-10.661-10.636-10.577zm96.116-96.66 10.636 10.576 4.364-4.388v-6.188h-15zm0-190.794h15v-15h-15v15zm-364.861 0v-15h-6.571l-4.455 4.831 11.026 10.169zm-1.264 169.945h-15v6.217l4.398 4.395 10.602-10.612zm190.334 190.163 10.455 10.756 10.914-10.609-10.767-10.758-10.602 10.611zm-70.19 68.231v15h6.09l4.366-4.245-10.456-10.755zm-144.174 0h-15v15h15v-15zm0-300.722-11.456-9.683-3.544 4.193v5.49h15zm24.03-28.43h15v-40.983l-26.456 31.3 11.456 9.683zm.632 307.04h-15v15h15v-15zm108.13 0v15h6.209l4.392-4.388-10.601-10.612zm48.69-48.646 10.602 10.611 10.621-10.611-10.621-10.611-10.602 10.611zm-156.82-156.679 10.601-10.611-25.601-25.579v36.19h15zm109.395-70.127h-15v6.407l4.628 4.429 10.372-10.836zm90.425 86.553-10.372 10.836 10.651 10.195 10.377-10.474-10.656-10.557zm61.969-62.545 10.655 10.557 4.345-4.384v-6.173h-15zm0-53.068h15v-15h-15v15zm-152.394 0v-15h-15v15h15zM296.07 357.675l10.945 10.257 130.262-138.989-10.945-10.257-10.945-10.258-130.261 138.989 10.944 10.258zm130.262-138.989v15h393.315v-30H426.332v15zm393.315 0-14.999.168 2.53 225.542 14.999-.168 14.999-.169-2.529-225.542-15 .169zm2.53 225.542-10.409-10.802-106.865 102.979 10.409 10.801 10.408 10.801 106.865-102.978-10.408-10.801zM715.312 547.206l-10.495 10.718 31.618 30.957 10.494-10.718 10.494-10.718-31.617-30.957-10.494 10.718zm31.617 30.957-13.439 6.664 103.072 207.852L850 786.015l13.438-6.664-103.071-207.852-13.438 6.664zM850 786.015v-15h-69.558v30H850v-15zm-69.558 0 10.768-10.443L672.963 653.64l-10.768 10.443-10.768 10.443 118.247 121.931 10.768-10.442zM662.195 664.083h-15v32.221h30v-32.221h-15zm0 32.221-10.714-10.498-87.896 89.711 10.715 10.498 10.714 10.497 87.896-89.711-10.715-10.497zM574.3 786.015v-15H311.247v30H574.3v-15zm-263.053 0h15v-253.34h-30v253.34h15zm0-253.34 10.602-10.612-37.309-37.274-10.602 10.611-10.601 10.612 37.308 37.274 10.602-10.611zM273.938 495.4h-15v252.708h30V495.4h-15zm0 252.708 10.262-10.94-123.938-116.245L150 631.863l-10.262 10.941 123.939 116.245 10.261-10.941zM150 631.863h15V213h-30v418.863h15zM150 213l-10.556 10.657 146.071 144.675 10.555-10.657 10.556-10.658-146.07-144.674L150 213zm148.6 176.264 10.434-10.776-123.305-119.404-10.435 10.775-10.435 10.776 123.306 119.404 10.435-10.775zM175.294 269.859h-15v351.264h30V269.859h-15zm0 351.264-10.333 10.873 77.777 73.917 10.333-10.873 10.334-10.873-77.778-73.917-10.333 10.873zm77.777 73.917h15V444.228h-30V695.04h15zm0-250.812-10.483 10.728 57.543 56.228 10.483-10.729 10.484-10.728-57.543-56.228-10.484 10.729zm57.543 56.227 10.452 10.76 22.764-22.113-10.451-10.759-10.451-10.76-22.765 22.112 10.451 10.76zm22.765-22.112h-15v279.242h30V478.343h-15zm0 279.242v15h232.068v-30H333.379v15zm232.068 0 10.273 10.93 74.616-70.126-10.273-10.93-10.272-10.93-74.616 70.126 10.272 10.93zm74.616-70.126h15v-73.285h-30v73.285h15zm0-73.285-10.624 10.589 148.6 149.096 10.624-10.588 10.624-10.589-148.599-149.097-10.625 10.589zm148.6 149.097v15h23.397v-30h-23.397v15zm23.397 0 13.342-6.855-85.367-166.156-13.342 6.855-13.342 6.855 85.366 166.155 13.343-6.854zm-85.367-166.156 10.586-10.627-209.304-208.484-10.585 10.628-10.586 10.627 209.304 208.484 10.585-10.628zM517.39 388.632h15v-67.6h-30v67.6h15zm0-67.6v15h195.392v-30H517.39v15zm195.392 0h-15v90.344h30v-90.344h-15zm0 90.344-10.702-10.51-65.764 66.967 10.703 10.51 10.702 10.51 65.764-66.967-10.703-10.51zm-65.763 66.967-10.602 10.611 53.749 53.7 10.602-10.611 10.601-10.611-53.749-53.701-10.601 10.612zm53.749 53.7 10.636 10.577 96.116-96.661-10.636-10.576-10.637-10.577-96.116 96.66 10.637 10.577zm96.116-96.66h15V244.589h-30v190.794h15zm0-190.794v-15H432.023v30h364.861v-15zm-364.861 0-11.026-10.169-133.424 144.674 11.027 10.17 11.026 10.169L443.05 254.758l-11.027-10.169zm-1.264 169.945-10.602 10.612 190.334 190.163 10.602-10.612 10.602-10.611-190.334-190.163-10.602 10.611zm190.334 190.163-10.456-10.755-70.189 68.23 10.455 10.756 10.456 10.755 70.189-68.23-10.455-10.756zm-70.19 68.231v-15H406.729v30h144.174v-15zm-144.174 0h15V372.206h-30v300.722h15zm0-300.722 11.457 9.683 24.029-28.43-11.456-9.683-11.456-9.683-24.03 28.43 11.456 9.683zm24.03-28.43h-15v70.758h30v-70.758h-15zm.632 307.04v15h108.13v-30h-108.13v15zm108.13 0 10.601 10.612 48.691-48.647-10.602-10.611-10.602-10.611-48.69 48.646 10.602 10.611zm48.69-48.646 10.602-10.611L441.992 434.88l-10.601 10.611-10.602 10.612 156.82 156.678 10.602-10.611zm-156.82-156.679h-15v205.325h30V445.491h-15zm109.395-70.127L530.414 386.2l90.425 86.553 10.372-10.836 10.372-10.836-90.425-86.553-10.372 10.836zm90.425 86.553 10.656 10.557 61.968-62.545-10.655-10.557-10.656-10.557-61.969 62.545 10.656 10.557zm61.969-62.545h15v-53.068h-30v53.068h15zm0-53.068v-15H540.786v30H693.18v-15zm-152.394 0h-15v29.06h30v-29.06h-15z" fill="#000" mask="url(#b)"/><defs><linearGradient id="a" x1="900" y1="500" x2="100" y2="500" gradientUnits="userSpaceOnUse"><stop stop-color="#080808"/><stop offset=".25" stop-color="#080808" stop-opacity=".4"/><stop offset=".5" stop-color="#fff"/><stop offset=".8" stop-color="#080808" stop-opacity=".4"/><stop offset="1" stop-color="#080808"/></linearGradient></defs></svg>