<svg width="554" height="454" viewBox="0 0 554 454" fill="none" xmlns="http://www.w3.org/2000/svg">
<path d="M115.5 114.5L218.5 4.5H529.5L531.5 183L447 264.5L472 289L553.5 453.5H498.5L405 357V382.5L335.5 453.5H127.5V253L98 223.5V423.5L0 331.5V0L115.5 114.5ZM117.5 139.5L20 45V323L81.5 381.5V183L127 227.5L145 210V431H328.5L387.5 375.5V317.5L505 435.5H523.5L456 304L290.5 139V85.5H445V157L393 210L435.5 252.5L511.5 176V25H223L117.5 139.5ZM222 159.5L372.5 310L317 364H203V126L222 103.5V159.5ZM222.5 346.5H308L346.5 308L222.5 184V346.5ZM309 128.5L380.5 197L429.5 147.5V105.5H309V128.5Z" fill="white"/>
</svg>
