<svg width="85" height="52" viewBox="0 0 85 52" fill="none" xmlns="http://www.w3.org/2000/svg">
<path d="M55 30V29.5H0.536621V30V30.5H55V30Z" fill="white"/>
<path d="M12.6566 18.555V9.93L8.12662 21.45H7.73662L3.37162 10.305V18.555C3.37162 19.345 3.39162 19.93 3.43162 20.31L4.82662 20.49C4.88662 20.67 4.88662 20.85 4.82662 21.03C3.96662 21.01 3.35662 21 2.99662 21C2.39662 21 1.79162 21.015 1.18162 21.045C1.14162 20.825 1.14162 20.64 1.18162 20.49L2.54662 20.34V11.505C2.54662 10.715 2.52662 10.13 2.48662 9.75L1.24162 9.57C1.18162 9.4 1.18162 9.23 1.24162 9.06H4.54162L8.30662 18.93L12.1616 9.06C12.3916 9.07 12.7416 9.075 13.2116 9.075C13.3116 9.075 14.0966 9.06 15.5666 9.03C15.6266 9.21 15.6266 9.39 15.5666 9.57L14.3216 9.75C14.2816 10.13 14.2616 10.715 14.2616 11.505V20.34L15.4766 20.49C15.5166 20.64 15.5166 20.825 15.4766 21.045C14.8466 21.015 14.1616 21 13.4216 21C12.8816 21 12.1916 21.01 11.3516 21.03C11.2916 20.78 11.2916 20.6 11.3516 20.49L12.5966 20.31C12.6366 19.93 12.6566 19.345 12.6566 18.555ZM16.6357 17.01C16.6357 16.41 16.7207 15.85 16.8907 15.33C17.0707 14.8 17.3257 14.34 17.6557 13.95C17.9857 13.56 18.3807 13.255 18.8407 13.035C19.3107 12.805 19.8357 12.69 20.4157 12.69C20.9857 12.69 21.5057 12.805 21.9757 13.035C22.4457 13.255 22.8457 13.56 23.1757 13.95C23.5157 14.34 23.7757 14.8 23.9557 15.33C24.1357 15.85 24.2257 16.41 24.2257 17.01C24.2257 17.63 24.1307 18.2 23.9407 18.72C23.7607 19.24 23.5007 19.695 23.1607 20.085C22.8307 20.465 22.4307 20.765 21.9607 20.985C21.4907 21.195 20.9757 21.3 20.4157 21.3C19.8257 21.3 19.2957 21.195 18.8257 20.985C18.3657 20.775 17.9707 20.48 17.6407 20.1C17.3207 19.72 17.0707 19.27 16.8907 18.75C16.7207 18.22 16.6357 17.64 16.6357 17.01ZM18.8257 14.25C18.3957 14.86 18.1807 15.78 18.1807 17.01C18.1807 17.62 18.2357 18.155 18.3457 18.615C18.4657 19.075 18.6257 19.46 18.8257 19.77C19.0257 20.07 19.2607 20.295 19.5307 20.445C19.8007 20.595 20.0957 20.67 20.4157 20.67C20.7257 20.67 21.0207 20.595 21.3007 20.445C21.5807 20.295 21.8207 20.07 22.0207 19.77C22.2207 19.46 22.3807 19.075 22.5007 18.615C22.6207 18.155 22.6807 17.62 22.6807 17.01C22.6807 16.4 22.6207 15.865 22.5007 15.405C22.3807 14.935 22.2157 14.55 22.0057 14.25C21.8057 13.94 21.5657 13.71 21.2857 13.56C21.0157 13.4 20.7257 13.32 20.4157 13.32C19.7957 13.32 19.2657 13.63 18.8257 14.25ZM25.5127 17.01C25.5127 16.41 25.5977 15.85 25.7677 15.33C25.9477 14.8 26.2027 14.34 26.5327 13.95C26.8627 13.56 27.2577 13.255 27.7177 13.035C28.1877 12.805 28.7127 12.69 29.2927 12.69C29.8627 12.69 30.3827 12.805 30.8527 13.035C31.3227 13.255 31.7227 13.56 32.0527 13.95C32.3927 14.34 32.6527 14.8 32.8327 15.33C33.0127 15.85 33.1027 16.41 33.1027 17.01C33.1027 17.63 33.0077 18.2 32.8177 18.72C32.6377 19.24 32.3777 19.695 32.0377 20.085C31.7077 20.465 31.3077 20.765 30.8377 20.985C30.3677 21.195 29.8527 21.3 29.2927 21.3C28.7027 21.3 28.1727 21.195 27.7027 20.985C27.2427 20.775 26.8477 20.48 26.5177 20.1C26.1977 19.72 25.9477 19.27 25.7677 18.75C25.5977 18.22 25.5127 17.64 25.5127 17.01ZM27.7027 14.25C27.2727 14.86 27.0577 15.78 27.0577 17.01C27.0577 17.62 27.1127 18.155 27.2227 18.615C27.3427 19.075 27.5027 19.46 27.7027 19.77C27.9027 20.07 28.1377 20.295 28.4077 20.445C28.6777 20.595 28.9727 20.67 29.2927 20.67C29.6027 20.67 29.8977 20.595 30.1777 20.445C30.4577 20.295 30.6977 20.07 30.8977 19.77C31.0977 19.46 31.2577 19.075 31.3777 18.615C31.4977 18.155 31.5577 17.62 31.5577 17.01C31.5577 16.4 31.4977 15.865 31.3777 15.405C31.2577 14.935 31.0927 14.55 30.8827 14.25C30.6827 13.94 30.4427 13.71 30.1627 13.56C29.8927 13.4 29.6027 13.32 29.2927 13.32C28.6727 13.32 28.1427 13.63 27.7027 14.25ZM40.4346 15.645C40.4346 14.875 40.3296 14.335 40.1196 14.025C39.9196 13.715 39.5796 13.56 39.0996 13.56C38.3596 13.56 37.6146 14.115 36.8646 15.225V20.235L38.0796 20.46C38.1196 20.62 38.1196 20.82 38.0796 21.06C37.4496 21.03 36.8046 21.015 36.1446 21.015C35.6846 21.015 35.0346 21.025 34.1946 21.045C34.1346 20.855 34.1346 20.66 34.1946 20.46L35.3796 20.295C35.4196 19.745 35.4396 19.11 35.4396 18.39V14.28C35.4396 14.08 35.4246 13.895 35.3946 13.725L34.2096 13.575C34.1696 13.425 34.1696 13.235 34.2096 13.005C34.8996 12.955 35.7596 12.85 36.7896 12.69C36.8796 12.79 36.9296 12.89 36.9396 12.99C36.8896 13.25 36.8646 13.695 36.8646 14.325C37.6546 13.235 38.5446 12.69 39.5346 12.69C41.0846 12.69 41.8596 13.425 41.8596 14.895V20.235L43.0746 20.46C43.1146 20.62 43.1146 20.82 43.0746 21.06C42.4446 21.03 41.7996 21.015 41.1396 21.015C40.6796 21.015 40.0296 21.025 39.1896 21.045C39.1296 20.855 39.1296 20.66 39.1896 20.46L40.3746 20.295C40.4146 19.745 40.4346 19.11 40.4346 18.39V15.645Z" fill="white"/>
<path d="M43.5366 5.00256L55 5V16.121" stroke="white"/>
<path d="M80 34.9219L80.2907 36.3934L84.5104 35.5599L80.6874 33.5887L80 34.9219ZM67.1865 37.4531L66.8958 35.9816L66.3248 36.0944L65.9794 36.5627L67.1865 37.4531ZM59.4072 48L57.9478 48.3463L58.6945 51.4932L60.6144 48.8904L59.4072 48ZM53 21L53.6874 19.6668L50.7871 18.1713L51.5405 21.3463L53 21ZM80 34.9219L79.7093 33.4503L66.8958 35.9816L67.1865 37.4531L67.4772 38.9247L80.2907 36.3934L80 34.9219ZM67.1865 37.4531L65.9794 36.5627L58.2001 47.1096L59.4072 48L60.6144 48.8904L68.3937 38.3435L67.1865 37.4531ZM59.4072 48L60.8667 47.6537L54.4595 20.6537L53 21L51.5405 21.3463L57.9478 48.3463L59.4072 48ZM53 21L52.3126 22.3332L79.3126 36.2551L80 34.9219L80.6874 33.5887L53.6874 19.6668L53 21Z" fill="white"/>
</svg>
