<svg width="2083" height="1016" viewBox="0 0 2083 1016" fill="none" xmlns="http://www.w3.org/2000/svg">
<g clip-path="url(#clip0_233_78)">
<g opacity="0.05" clip-path="url(#clip1_233_78)">
<path d="M161.815 127.4V12.4L101.415 166H96.2149L38.0149 17.4V127.4C38.0149 137.933 38.2815 145.733 38.8148 150.8L57.4149 153.2C58.2149 155.6 58.2149 158 57.4149 160.4C45.9482 160.133 37.8148 160 33.0148 160C25.0148 160 16.9482 160.2 8.81485 160.6C8.28151 157.667 8.28151 155.2 8.81485 153.2L27.0148 151.2L27.0148 33.4C27.0148 22.8667 26.7482 15.0667 26.2148 9.99999L9.61485 7.6C8.81485 5.33333 8.81485 3.06666 9.61485 0.799987L53.6149 0.799987L103.815 132.4L155.215 0.799987C158.282 0.933327 162.948 0.999997 169.215 0.999997C170.548 0.999997 181.015 0.799995 200.615 0.399992C201.415 2.79999 201.415 5.19999 200.615 7.6L184.015 9.99999C183.482 15.0667 183.215 22.8667 183.215 33.4V151.2L199.415 153.2C199.948 155.2 199.948 157.667 199.415 160.6C191.015 160.2 181.882 160 172.015 160C164.815 160 155.615 160.133 144.415 160.4C143.615 157.067 143.615 154.667 144.415 153.2L161.015 150.8C161.548 145.733 161.815 137.933 161.815 127.4ZM214.87 106.8C214.87 98.8 216.003 91.3333 218.27 84.4C220.67 77.3333 224.07 71.2 228.47 66C232.87 60.8 238.136 56.7333 244.27 53.8C250.536 50.7333 257.536 49.2 265.27 49.2C272.87 49.2 279.803 50.7333 286.07 53.8C292.336 56.7333 297.67 60.8 302.07 66C306.603 71.2 310.07 77.3333 312.47 84.4C314.87 91.3333 316.07 98.8 316.07 106.8C316.07 115.067 314.803 122.667 312.27 129.6C309.87 136.533 306.403 142.6 301.87 147.8C297.47 152.867 292.136 156.867 285.87 159.8C279.603 162.6 272.736 164 265.27 164C257.403 164 250.336 162.6 244.07 159.8C237.936 157 232.67 153.067 228.27 148C224.003 142.933 220.67 136.933 218.27 130C216.003 122.933 214.87 115.2 214.87 106.8ZM244.07 70C238.336 78.1333 235.47 90.4 235.47 106.8C235.47 114.933 236.203 122.067 237.67 128.2C239.27 134.333 241.403 139.467 244.07 143.6C246.736 147.6 249.87 150.6 253.47 152.6C257.07 154.6 261.003 155.6 265.27 155.6C269.403 155.6 273.336 154.6 277.07 152.6C280.803 150.6 284.003 147.6 286.67 143.6C289.336 139.467 291.47 134.333 293.07 128.2C294.67 122.067 295.47 114.933 295.47 106.8C295.47 98.6667 294.67 91.5333 293.07 85.4C291.47 79.1333 289.27 74 286.47 70C283.803 65.8667 280.603 62.8 276.87 60.8C273.27 58.6667 269.403 57.6 265.27 57.6C257.003 57.6 249.936 61.7333 244.07 70ZM420.229 78.8C417.429 81.7333 410.829 83.1333 400.429 83C398.296 66.2 392.229 57.8 382.229 57.8C374.362 57.8 367.696 62.3333 362.229 71.4C356.762 80.4667 354.029 92.4 354.029 107.2C354.029 122.4 356.429 134.133 361.229 142.4C366.029 150.533 373.229 154.6 382.829 154.6C392.962 154.6 402.896 150.467 412.629 142.2C414.629 143.4 416.162 145.467 417.229 148.4C407.496 158.8 395.296 164 380.629 164C366.629 164 355.162 159.2 346.229 149.6C337.296 139.867 332.829 125.6 332.829 106.8C332.829 88.8 337.762 74.7333 347.629 64.6C357.629 54.3333 369.029 49.2 381.829 49.2C391.962 49.2 400.896 51.7333 408.629 56.8C416.362 61.8667 420.229 69.2 420.229 78.8ZM447.373 30.2C447.373 21.4 447.173 14.8667 446.773 10.6L430.973 8.6C430.439 6.6 430.439 4.06666 430.973 0.999997C439.906 0.333331 451.306 -1.06667 465.173 -3.20001C466.373 -1.86668 467.039 -0.533345 467.173 0.799987C466.506 4.26666 466.173 15.0667 466.173 33.2V71C476.039 57.4 487.906 50.6 501.773 50.6C510.039 50.6 517.106 52.6667 522.973 56.8C528.839 60.9333 531.773 68 531.773 78V149.8L547.973 152.8C548.506 154.933 548.506 157.6 547.973 160.8C539.573 160.4 531.039 160.2 522.373 160.2C516.239 160.2 507.573 160.333 496.373 160.6C495.573 158.067 495.573 155.467 496.373 152.8L512.173 150.6C512.706 143.267 512.973 134.8 512.973 125.2V88C512.973 78.6667 511.773 71.9333 509.373 67.8C507.106 63.6667 502.906 61.6 496.773 61.6C491.706 61.6 486.373 63.4667 480.773 67.2C475.306 70.9333 470.439 76.3333 466.173 83.4V149.8L482.373 152.8C482.906 154.933 482.906 157.6 482.373 160.8C473.973 160.4 465.439 160.2 456.773 160.2C450.639 160.2 441.973 160.333 430.773 160.6C429.973 158.067 429.973 155.467 430.773 152.8L446.573 150.6C447.106 143.267 447.373 134.8 447.373 125.2V30.2ZM595.591 155.2C602.791 155.2 608.125 153.533 611.591 150.2C615.058 146.867 616.791 143 616.791 138.6C616.791 136.067 616.391 133.733 615.591 131.6C614.791 129.467 613.458 127.4 611.591 125.4C609.858 123.4 607.525 121.467 604.591 119.6C601.658 117.6 597.991 115.467 593.591 113.2C588.125 110.4 583.391 107.733 579.391 105.2C575.525 102.667 572.325 100 569.791 97.2C567.258 94.4 565.325 91.4 563.991 88.2C562.791 85 562.191 81.4 562.191 77.4C562.191 72.6 563.058 68.4667 564.791 65C566.525 61.4 568.925 58.4667 571.991 56.2C575.191 53.8 578.925 52.0667 583.191 51C587.458 49.8 592.191 49.2 597.391 49.2C607.791 49.2 617.925 51.7333 627.791 56.8V82.4H618.391L613.991 60.8C608.125 58 601.925 56.6 595.391 56.6C584.458 56.6 578.991 61.0667 578.991 70C578.991 74.8 580.791 79.2 584.391 83.2C587.991 87.2 593.791 91.2 601.791 95.2C607.258 98 612.058 100.667 616.191 103.2C620.325 105.733 623.725 108.4 626.391 111.2C629.191 114 631.258 117.067 632.591 120.4C634.058 123.6 634.791 127.267 634.791 131.4C634.791 136.067 633.791 140.4 631.791 144.4C629.791 148.4 626.991 151.867 623.391 154.8C619.791 157.6 615.458 159.8 610.391 161.4C605.325 163.133 599.725 164 593.591 164C581.725 164 570.591 161.467 560.191 156.4V130.8H569.591L573.991 150.6C580.791 153.667 587.991 155.2 595.591 155.2ZM670.184 133.4C670.184 140.333 671.45 145.267 673.984 148.2C676.517 151 680.517 152.4 685.984 152.4C689.984 152.4 694.384 151.2 699.184 148.8C704.117 146.267 708.65 142.667 712.784 138V106.8C699.05 107.6 688.517 110.067 681.184 114.2C673.85 118.2 670.184 124.6 670.184 133.4ZM712.784 99.6V89.4C712.784 78.0667 711.45 69.8667 708.784 64.8C706.25 59.6 701.984 57 695.984 57C689.85 57 684.917 59 681.184 63C677.45 66.8667 674.917 73.5333 673.584 83C669.317 83.9333 666.184 84.4 664.184 84.4C658.984 84.4 655.917 82.5333 654.984 78.8C654.984 69.7333 658.917 62.5333 666.784 57.2C674.65 51.8667 684.45 49.2 696.184 49.2C709.117 49.2 718.25 51.8667 723.584 57.2C729.05 62.4 731.784 71.8 731.784 85.4V141.8C731.784 145.133 731.984 148 732.384 150.4L748.184 152.4C748.717 154.4 748.717 156.933 748.184 160C738.717 160.4 728.65 161.333 717.984 162.8C716.917 161.733 716.25 160.4 715.984 158.8L714.984 145C703.917 157.667 691.584 164 677.984 164C669.584 164 662.984 161.6 658.184 156.8C653.517 152 651.184 145.533 651.184 137.4C651.184 125.133 656.717 115.867 667.784 109.6C678.984 103.333 693.984 100 712.784 99.6ZM789.42 33.2V149.8L805.62 152.8C806.153 154.933 806.153 157.6 805.62 160.8C797.22 160.4 788.62 160.2 779.82 160.2C773.686 160.2 765.02 160.333 753.82 160.6C753.02 158.067 753.02 155.467 753.82 152.8L769.62 150.6C770.153 143.267 770.42 134.8 770.42 125.2V10.6L754.02 8.6C753.486 6.6 753.486 4.06666 754.02 0.999997C763.22 0.333331 774.686 -1.06667 788.42 -3.20001C789.62 -1.86668 790.286 -0.533345 790.42 0.799987C789.753 4.26666 789.42 15.0667 789.42 33.2Z" fill="#D2D2D2"/>
<path d="M863.053 53.2L862.653 73.8C865.987 67.6667 870.587 62.0667 876.453 57C882.453 51.8 888.12 49.2 893.453 49.2C897.587 49.2 901.253 49.6667 904.453 50.6C905.52 52.3333 906.053 54.6 906.053 57.4C906.053 61.8 905.12 66.2 903.253 70.6C898.453 69.2667 893.853 68.6 889.453 68.6C878.52 68.6 869.52 73.9333 862.453 84.6L862.053 119.6L862.053 149.8L884.253 152.8C884.787 154.933 884.787 157.6 884.253 160.8C875.853 160.4 866.253 160.2 855.453 160.2C847.32 160.2 837.653 160.333 826.453 160.6C825.653 158.067 825.653 155.467 826.453 152.8L842.253 150.6C842.787 143.267 843.053 134.8 843.053 125.2V70.4C843.053 67.7333 842.853 65.2667 842.453 63L826.653 61C826.12 59 826.12 56.4667 826.653 53.4C835.853 52.7333 847.32 51.3333 861.053 49.2C862.253 50.5333 862.92 51.8667 863.053 53.2ZM934.367 133.4C934.367 140.333 935.634 145.267 938.167 148.2C940.701 151 944.701 152.4 950.167 152.4C954.167 152.4 958.567 151.2 963.367 148.8C968.301 146.267 972.834 142.667 976.967 138V106.8C963.234 107.6 952.701 110.067 945.367 114.2C938.034 118.2 934.367 124.6 934.367 133.4ZM976.967 99.6V89.4C976.967 78.0667 975.634 69.8667 972.967 64.8C970.434 59.6 966.167 57 960.167 57C954.034 57 949.101 59 945.367 63C941.634 66.8667 939.101 73.5333 937.767 83C933.501 83.9333 930.367 84.4 928.367 84.4C923.167 84.4 920.101 82.5333 919.167 78.8C919.167 69.7333 923.101 62.5333 930.967 57.2C938.834 51.8667 948.634 49.2 960.367 49.2C973.301 49.2 982.434 51.8667 987.767 57.2C993.234 62.4 995.967 71.8 995.967 85.4V141.8C995.967 145.133 996.167 148 996.567 150.4L1012.37 152.4C1012.9 154.4 1012.9 156.933 1012.37 160C1002.9 160.4 992.834 161.333 982.167 162.8C981.101 161.733 980.434 160.4 980.167 158.8L979.167 145C968.101 157.667 955.767 164 942.167 164C933.767 164 927.167 161.6 922.367 156.8C917.701 152 915.367 145.533 915.367 137.4C915.367 125.133 920.901 115.867 931.967 109.6C943.167 103.333 958.167 100 976.967 99.6ZM1069.6 -3.20001C1089.47 -3.20001 1099.4 4.66666 1099.4 20.4C1096.6 23.3333 1089.94 24.7333 1079.4 24.6C1078.07 10.6 1074.67 3.59999 1069.2 3.59999C1064.14 3.59999 1060.54 7.66666 1058.4 15.8C1056.4 23.8 1055.4 38.4667 1055.4 59.8H1083.6C1084.4 62.3333 1084.4 64.9333 1083.6 67.6L1055.4 71.8V148.8L1079.6 152.8C1080.4 155.467 1080.4 158.133 1079.6 160.8C1071.2 160.4 1060.87 160.2 1048.6 160.2C1041.4 160.2 1032.2 160.333 1021 160.6C1019.94 158.2 1019.94 155.6 1021 152.8L1035.6 149.6C1036.14 142.533 1036.4 134.4 1036.4 125.2V69.8L1022.2 67.6C1021.4 64.9333 1021.4 62.3333 1022.2 59.8H1036.4V46.2C1036.4 38.2 1037.54 30.6 1039.8 23.4C1042.07 16.0667 1045.8 9.8 1051 4.6C1056.34 -0.600007 1062.54 -3.20001 1069.6 -3.20001ZM1116.59 133.4C1116.59 140.333 1117.86 145.267 1120.39 148.2C1122.93 151 1126.93 152.4 1132.39 152.4C1136.39 152.4 1140.79 151.2 1145.59 148.8C1150.53 146.267 1155.06 142.667 1159.19 138V106.8C1145.46 107.6 1134.93 110.067 1127.59 114.2C1120.26 118.2 1116.59 124.6 1116.59 133.4ZM1159.19 99.6V89.4C1159.19 78.0667 1157.86 69.8667 1155.19 64.8C1152.66 59.6 1148.39 57 1142.39 57C1136.26 57 1131.33 59 1127.59 63C1123.86 66.8667 1121.33 73.5333 1119.99 83C1115.73 83.9333 1112.59 84.4 1110.59 84.4C1105.39 84.4 1102.33 82.5333 1101.39 78.8C1101.39 69.7333 1105.33 62.5333 1113.19 57.2C1121.06 51.8667 1130.86 49.2 1142.59 49.2C1155.53 49.2 1164.66 51.8667 1169.99 57.2C1175.46 62.4 1178.19 71.8 1178.19 85.4V141.8C1178.19 145.133 1178.39 148 1178.79 150.4L1194.59 152.4C1195.13 154.4 1195.13 156.933 1194.59 160C1185.13 160.4 1175.06 161.333 1164.39 162.8C1163.33 161.733 1162.66 160.4 1162.39 158.8L1161.39 145C1150.33 157.667 1137.99 164 1124.39 164C1115.99 164 1109.39 161.6 1104.59 156.8C1099.93 152 1097.59 145.533 1097.59 137.4C1097.59 125.133 1103.13 115.867 1114.19 109.6C1125.39 103.333 1140.39 100 1159.19 99.6ZM1301.63 131.6C1301.63 140.533 1301.83 146.8 1302.23 150.4L1318.03 152.4C1318.43 154.533 1318.43 157.067 1318.03 160C1308.3 160.4 1298.16 161.333 1287.63 162.8C1286.7 161.867 1286.03 160.6 1285.63 159L1284.63 146.2C1279.96 151.667 1274.16 156.067 1267.23 159.4C1260.3 162.6 1253.03 164.2 1245.43 164.2C1233.83 164.2 1224.23 159.4 1216.63 149.8C1209.03 140.067 1205.23 127.133 1205.23 111C1205.23 92.3333 1210.16 77.4 1220.03 66.2C1230.03 54.8667 1241.96 49.2 1255.83 49.2C1266.76 49.2 1275.7 51.8 1282.63 57V30.2C1282.63 21.4 1282.43 14.8667 1282.03 10.6L1266.23 8.6C1265.7 6.6 1265.7 4.06666 1266.23 0.999997C1275.43 0.333331 1286.9 -1.06667 1300.63 -3.20001C1301.83 -1.86668 1302.5 -0.533345 1302.63 0.799987C1301.96 4.26666 1301.63 15.0667 1301.63 33.2V131.6ZM1254.23 60C1245.56 60 1238.63 64.6 1233.43 73.8C1228.23 82.8667 1225.63 95.4667 1225.63 111.6C1225.63 124.8 1228.03 134.867 1232.83 141.8C1237.76 148.733 1244.23 152.2 1252.23 152.2C1257.03 152.2 1262.3 150.733 1268.03 147.8C1273.76 144.733 1278.63 140.533 1282.63 135.2V71.2C1276.1 63.7333 1266.63 60 1254.23 60ZM1341.83 30.2C1341.83 21.4 1341.63 14.8667 1341.23 10.6L1325.43 8.6C1324.9 6.6 1324.9 4.06666 1325.43 0.999997C1334.36 0.333331 1345.76 -1.06667 1359.63 -3.20001C1360.83 -1.86668 1361.5 -0.533345 1361.63 0.799987C1360.96 4.26666 1360.63 15.0667 1360.63 33.2V71C1370.5 57.4 1382.36 50.6 1396.23 50.6C1404.5 50.6 1411.56 52.6667 1417.43 56.8C1423.3 60.9333 1426.23 68 1426.23 78V149.8L1442.43 152.8C1442.96 154.933 1442.96 157.6 1442.43 160.8C1434.03 160.4 1425.5 160.2 1416.83 160.2C1410.7 160.2 1402.03 160.333 1390.83 160.6C1390.03 158.067 1390.03 155.467 1390.83 152.8L1406.63 150.6C1407.16 143.267 1407.43 134.8 1407.43 125.2V88C1407.43 78.6667 1406.23 71.9333 1403.83 67.8C1401.56 63.6667 1397.36 61.6 1391.23 61.6C1386.16 61.6 1380.83 63.4667 1375.23 67.2C1369.76 70.9333 1364.9 76.3333 1360.63 83.4V149.8L1376.83 152.8C1377.36 154.933 1377.36 157.6 1376.83 160.8C1368.43 160.4 1359.9 160.2 1351.23 160.2C1345.1 160.2 1336.43 160.333 1325.23 160.6C1324.43 158.067 1324.43 155.467 1325.23 152.8L1341.03 150.6C1341.56 143.267 1341.83 134.8 1341.83 125.2V30.2ZM1485.05 33.2V149.8L1501.25 152.8C1501.78 154.933 1501.78 157.6 1501.25 160.8C1492.85 160.4 1484.25 160.2 1475.45 160.2C1469.32 160.2 1460.65 160.333 1449.45 160.6C1448.65 158.067 1448.65 155.467 1449.45 152.8L1465.25 150.6C1465.78 143.267 1466.05 134.8 1466.05 125.2V10.6L1449.65 8.6C1449.12 6.6 1449.12 4.06666 1449.65 0.999997C1458.85 0.333331 1470.32 -1.06667 1484.05 -3.20001C1485.25 -1.86668 1485.92 -0.533345 1486.05 0.799987C1485.38 4.26666 1485.05 15.0667 1485.05 33.2ZM1547.01 85.6V149.8L1563.21 152.8C1563.35 153.467 1563.41 154.067 1563.41 154.6C1563.55 155.133 1563.61 155.733 1563.61 156.4C1563.61 157.067 1563.55 157.8 1563.41 158.6C1563.41 159.267 1563.35 160 1563.21 160.8C1554.81 160.4 1546.21 160.2 1537.41 160.2C1534.35 160.2 1530.61 160.2 1526.21 160.2C1521.95 160.333 1517.01 160.467 1511.41 160.6C1511.01 159.4 1510.81 158.133 1510.81 156.8C1510.81 155.6 1511.01 154.267 1511.41 152.8L1527.21 150.6C1527.48 146.867 1527.68 142.933 1527.81 138.8C1527.95 134.533 1528.01 130 1528.01 125.2V82.6C1528.01 73.8 1527.81 67.2667 1527.41 63L1511.61 61C1511.35 60.3333 1511.21 59.2 1511.21 57.6C1511.21 56.9333 1511.21 56.2667 1511.21 55.6C1511.21 54.9333 1511.35 54.2 1511.61 53.4C1520.68 52.8667 1532.15 51.4667 1546.01 49.2C1547.21 50.5333 1547.88 51.8667 1548.01 53.2C1547.35 56.9333 1547.01 67.7333 1547.01 85.6ZM1517.81 14.2C1517.55 13.5333 1517.41 12.8667 1517.41 12.2C1517.41 11.4 1517.41 10.6667 1517.41 9.99999C1517.41 6.4 1518.88 3.53333 1521.81 1.39999C1524.88 -0.866678 1528.61 -2.00001 1533.01 -2.00001C1537.15 -2.00001 1540.48 -0.733342 1543.01 1.8C1545.68 4.19999 1547.01 7.53332 1547.01 11.8C1547.01 15.2667 1545.48 18.0667 1542.41 20.2C1539.48 22.3333 1535.68 23.4 1531.01 23.4C1527.81 23.4 1524.95 22.6 1522.41 21C1520.01 19.4 1518.48 17.1333 1517.81 14.2ZM1587.73 30.2C1587.73 21.4 1587.53 14.8667 1587.13 10.6L1571.33 8.6C1570.8 6.6 1570.8 4.06666 1571.33 0.999997C1580.26 0.333331 1591.66 -1.06667 1605.53 -3.20001C1606.73 -1.86668 1607.4 -0.533345 1607.53 0.799987C1606.86 4.26666 1606.53 15.0667 1606.53 33.2V71C1616.4 57.4 1628.26 50.6 1642.13 50.6C1650.4 50.6 1657.46 52.6667 1663.33 56.8C1669.2 60.9333 1672.13 68 1672.13 78V149.8L1688.33 152.8C1688.86 154.933 1688.86 157.6 1688.33 160.8C1679.93 160.4 1671.4 160.2 1662.73 160.2C1656.6 160.2 1647.93 160.333 1636.73 160.6C1635.93 158.067 1635.93 155.467 1636.73 152.8L1652.53 150.6C1653.06 143.267 1653.33 134.8 1653.33 125.2V88C1653.33 78.6667 1652.13 71.9333 1649.73 67.8C1647.46 63.6667 1643.26 61.6 1637.13 61.6C1632.06 61.6 1626.73 63.4667 1621.13 67.2C1615.66 70.9333 1610.8 76.3333 1606.53 83.4V149.8L1622.73 152.8C1623.26 154.933 1623.26 157.6 1622.73 160.8C1614.33 160.4 1605.8 160.2 1597.13 160.2C1591 160.2 1582.33 160.333 1571.13 160.6C1570.33 158.067 1570.33 155.467 1571.13 152.8L1586.93 150.6C1587.46 143.267 1587.73 134.8 1587.73 125.2V30.2Z" fill="#D2D2D2"/>
</g>
<g opacity="0.05" clip-path="url(#clip2_233_78)">
<path d="M43.0531 224.2L42.6531 244.8C45.9865 238.667 50.5865 233.067 56.4531 228C62.4531 222.8 68.1198 220.2 73.4531 220.2C77.5865 220.2 81.2531 220.667 84.4531 221.6C85.5198 223.333 86.0531 225.6 86.0531 228.4C86.0531 232.8 85.1198 237.2 83.2531 241.6C78.4531 240.267 73.8531 239.6 69.4531 239.6C58.5198 239.6 49.5198 244.933 42.4531 255.6L42.0531 290.6L42.0531 320.8L64.2531 323.8C64.7865 325.933 64.7865 328.6 64.2531 331.8C55.8531 331.4 46.2531 331.2 35.4531 331.2C27.3198 331.2 17.6531 331.333 6.45313 331.6C5.65313 329.067 5.65313 326.467 6.45313 323.8L22.2531 321.6C22.7865 314.267 23.0531 305.8 23.0531 296.2V241.4C23.0531 238.733 22.8531 236.267 22.4531 234L6.65313 232C6.11979 230 6.11979 227.467 6.65313 224.4C15.8531 223.733 27.3198 222.333 41.0531 220.2C42.2531 221.533 42.9198 222.867 43.0531 224.2ZM114.367 304.4C114.367 311.333 115.634 316.267 118.167 319.2C120.701 322 124.701 323.4 130.167 323.4C134.167 323.4 138.567 322.2 143.367 319.8C148.301 317.267 152.834 313.667 156.967 309V277.8C143.234 278.6 132.701 281.067 125.367 285.2C118.034 289.2 114.367 295.6 114.367 304.4ZM156.967 270.6V260.4C156.967 249.067 155.634 240.867 152.967 235.8C150.434 230.6 146.167 228 140.167 228C134.034 228 129.101 230 125.367 234C121.634 237.867 119.101 244.533 117.767 254C113.501 254.933 110.367 255.4 108.367 255.4C103.167 255.4 100.101 253.533 99.1672 249.8C99.1672 240.733 103.101 233.533 110.967 228.2C118.834 222.867 128.634 220.2 140.367 220.2C153.301 220.2 162.434 222.867 167.767 228.2C173.234 233.4 175.967 242.8 175.967 256.4V312.8C175.967 316.133 176.167 319 176.567 321.4L192.367 323.4C192.901 325.4 192.901 327.933 192.367 331C182.901 331.4 172.834 332.333 162.167 333.8C161.101 332.733 160.434 331.4 160.167 329.8L159.167 316C148.101 328.667 135.767 335 122.167 335C113.767 335 107.167 332.6 102.367 327.8C97.7005 323 95.3672 316.533 95.3672 308.4C95.3672 296.133 100.901 286.867 111.967 280.6C123.167 274.333 138.167 271 156.967 270.6ZM249.603 167.8C269.47 167.8 279.403 175.667 279.403 191.4C276.603 194.333 269.936 195.733 259.403 195.6C258.07 181.6 254.67 174.6 249.203 174.6C244.136 174.6 240.536 178.667 238.403 186.8C236.403 194.8 235.403 209.467 235.403 230.8H263.603C264.403 233.333 264.403 235.933 263.603 238.6L235.403 242.8V319.8L259.603 323.8C260.403 326.467 260.403 329.133 259.603 331.8C251.203 331.4 240.87 331.2 228.603 331.2C221.403 331.2 212.203 331.333 201.003 331.6C199.936 329.2 199.936 326.6 201.003 323.8L215.603 320.6C216.136 313.533 216.403 305.4 216.403 296.2V240.8L202.203 238.6C201.403 235.933 201.403 233.333 202.203 230.8H216.403V217.2C216.403 209.2 217.536 201.6 219.803 194.4C222.07 187.067 225.803 180.8 231.003 175.6C236.336 170.4 242.536 167.8 249.603 167.8ZM296.594 304.4C296.594 311.333 297.86 316.267 300.394 319.2C302.927 322 306.927 323.4 312.394 323.4C316.394 323.4 320.794 322.2 325.594 319.8C330.527 317.267 335.06 313.667 339.194 309V277.8C325.46 278.6 314.927 281.067 307.594 285.2C300.26 289.2 296.594 295.6 296.594 304.4ZM339.194 270.6V260.4C339.194 249.067 337.86 240.867 335.194 235.8C332.66 230.6 328.394 228 322.394 228C316.26 228 311.327 230 307.594 234C303.86 237.867 301.327 244.533 299.994 254C295.727 254.933 292.594 255.4 290.594 255.4C285.394 255.4 282.327 253.533 281.394 249.8C281.394 240.733 285.327 233.533 293.194 228.2C301.06 222.867 310.86 220.2 322.594 220.2C335.527 220.2 344.66 222.867 349.994 228.2C355.46 233.4 358.194 242.8 358.194 256.4V312.8C358.194 316.133 358.394 319 358.794 321.4L374.594 323.4C375.127 325.4 375.127 327.933 374.594 331C365.127 331.4 355.06 332.333 344.394 333.8C343.327 332.733 342.66 331.4 342.394 329.8L341.394 316C330.327 328.667 317.994 335 304.394 335C295.994 335 289.394 332.6 284.594 327.8C279.927 323 277.594 316.533 277.594 308.4C277.594 296.133 283.127 286.867 294.194 280.6C305.394 274.333 320.394 271 339.194 270.6ZM481.63 302.6C481.63 311.533 481.83 317.8 482.23 321.4L498.03 323.4C498.43 325.533 498.43 328.067 498.03 331C488.296 331.4 478.163 332.333 467.63 333.8C466.696 332.867 466.03 331.6 465.63 330L464.63 317.2C459.963 322.667 454.163 327.067 447.23 330.4C440.296 333.6 433.03 335.2 425.43 335.2C413.83 335.2 404.23 330.4 396.63 320.8C389.03 311.067 385.23 298.133 385.23 282C385.23 263.333 390.163 248.4 400.03 237.2C410.03 225.867 421.963 220.2 435.83 220.2C446.763 220.2 455.696 222.8 462.63 228V201.2C462.63 192.4 462.43 185.867 462.03 181.6L446.23 179.6C445.696 177.6 445.696 175.067 446.23 172C455.43 171.333 466.896 169.933 480.63 167.8C481.83 169.133 482.496 170.467 482.63 171.8C481.963 175.267 481.63 186.067 481.63 204.2V302.6ZM434.23 231C425.563 231 418.63 235.6 413.43 244.8C408.23 253.867 405.63 266.467 405.63 282.6C405.63 295.8 408.03 305.867 412.83 312.8C417.763 319.733 424.23 323.2 432.23 323.2C437.03 323.2 442.296 321.733 448.03 318.8C453.763 315.733 458.63 311.533 462.63 306.2V242.2C456.096 234.733 446.63 231 434.23 231ZM521.83 201.2C521.83 192.4 521.63 185.867 521.23 181.6L505.43 179.6C504.896 177.6 504.896 175.067 505.43 172C514.363 171.333 525.763 169.933 539.63 167.8C540.83 169.133 541.496 170.467 541.63 171.8C540.963 175.267 540.63 186.067 540.63 204.2V242C550.496 228.4 562.363 221.6 576.23 221.6C584.496 221.6 591.563 223.667 597.43 227.8C603.296 231.933 606.23 239 606.23 249V320.8L622.43 323.8C622.963 325.933 622.963 328.6 622.43 331.8C614.03 331.4 605.496 331.2 596.83 331.2C590.696 331.2 582.03 331.333 570.83 331.6C570.03 329.067 570.03 326.467 570.83 323.8L586.63 321.6C587.163 314.267 587.43 305.8 587.43 296.2V259C587.43 249.667 586.23 242.933 583.83 238.8C581.563 234.667 577.363 232.6 571.23 232.6C566.163 232.6 560.83 234.467 555.23 238.2C549.763 241.933 544.896 247.333 540.63 254.4V320.8L556.83 323.8C557.363 325.933 557.363 328.6 556.83 331.8C548.43 331.4 539.896 331.2 531.23 331.2C525.096 331.2 516.43 331.333 505.23 331.6C504.43 329.067 504.43 326.467 505.23 323.8L521.03 321.6C521.563 314.267 521.83 305.8 521.83 296.2V201.2ZM665.049 204.2V320.8L681.249 323.8C681.782 325.933 681.782 328.6 681.249 331.8C672.849 331.4 664.249 331.2 655.449 331.2C649.315 331.2 640.649 331.333 629.449 331.6C628.649 329.067 628.649 326.467 629.449 323.8L645.249 321.6C645.782 314.267 646.049 305.8 646.049 296.2V181.6L629.649 179.6C629.115 177.6 629.115 175.067 629.649 172C638.849 171.333 650.315 169.933 664.049 167.8C665.249 169.133 665.915 170.467 666.049 171.8C665.382 175.267 665.049 186.067 665.049 204.2ZM727.014 256.6V320.8L743.214 323.8C743.347 324.467 743.414 325.067 743.414 325.6C743.547 326.133 743.614 326.733 743.614 327.4C743.614 328.067 743.547 328.8 743.414 329.6C743.414 330.267 743.347 331 743.214 331.8C734.814 331.4 726.214 331.2 717.414 331.2C714.347 331.2 710.614 331.2 706.214 331.2C701.947 331.333 697.014 331.467 691.414 331.6C691.014 330.4 690.814 329.133 690.814 327.8C690.814 326.6 691.014 325.267 691.414 323.8L707.214 321.6C707.481 317.867 707.681 313.933 707.814 309.8C707.947 305.533 708.014 301 708.014 296.2V253.6C708.014 244.8 707.814 238.267 707.414 234L691.614 232C691.347 231.333 691.214 230.2 691.214 228.6C691.214 227.933 691.214 227.267 691.214 226.6C691.214 225.933 691.347 225.2 691.614 224.4C700.681 223.867 712.147 222.467 726.014 220.2C727.214 221.533 727.881 222.867 728.014 224.2C727.347 227.933 727.014 238.733 727.014 256.6ZM697.814 185.2C697.547 184.533 697.414 183.867 697.414 183.2C697.414 182.4 697.414 181.667 697.414 181C697.414 177.4 698.881 174.533 701.814 172.4C704.881 170.133 708.614 169 713.014 169C717.147 169 720.481 170.267 723.014 172.8C725.681 175.2 727.014 178.533 727.014 182.8C727.014 186.267 725.481 189.067 722.414 191.2C719.481 193.333 715.681 194.4 711.014 194.4C707.814 194.4 704.947 193.6 702.414 192C700.014 190.4 698.481 188.133 697.814 185.2ZM767.728 201.2C767.728 192.4 767.528 185.867 767.128 181.6L751.328 179.6C750.795 177.6 750.795 175.067 751.328 172C760.262 171.333 771.662 169.933 785.528 167.8C786.728 169.133 787.395 170.467 787.528 171.8C786.862 175.267 786.528 186.067 786.528 204.2V242C796.395 228.4 808.262 221.6 822.128 221.6C830.395 221.6 837.462 223.667 843.328 227.8C849.195 231.933 852.128 239 852.128 249V320.8L868.328 323.8C868.862 325.933 868.862 328.6 868.328 331.8C859.928 331.4 851.395 331.2 842.728 331.2C836.595 331.2 827.928 331.333 816.728 331.6C815.928 329.067 815.928 326.467 816.728 323.8L832.528 321.6C833.062 314.267 833.328 305.8 833.328 296.2V259C833.328 249.667 832.128 242.933 829.728 238.8C827.462 234.667 823.262 232.6 817.128 232.6C812.062 232.6 806.728 234.467 801.128 238.2C795.662 241.933 790.795 247.333 786.528 254.4V320.8L802.728 323.8C803.262 325.933 803.262 328.6 802.728 331.8C794.328 331.4 785.795 331.2 777.128 331.2C770.995 331.2 762.328 331.333 751.128 331.6C750.328 329.067 750.328 326.467 751.128 323.8L766.928 321.6C767.462 314.267 767.728 305.8 767.728 296.2V201.2Z" fill="#D2D2D2"/>
<path d="M1043.81 298.4V183.4L983.415 337H978.215L920.015 188.4V298.4C920.015 308.933 920.282 316.733 920.815 321.8L939.415 324.2C940.215 326.6 940.215 329 939.415 331.4C927.948 331.133 919.815 331 915.015 331C907.015 331 898.948 331.2 890.815 331.6C890.282 328.667 890.282 326.2 890.815 324.2L909.015 322.2V204.4C909.015 193.867 908.748 186.067 908.215 181L891.615 178.6C890.815 176.333 890.815 174.067 891.615 171.8H935.615L985.815 303.4L1037.21 171.8C1040.28 171.933 1044.95 172 1051.21 172C1052.55 172 1063.01 171.8 1082.62 171.4C1083.41 173.8 1083.41 176.2 1082.62 178.6L1066.01 181C1065.48 186.067 1065.21 193.867 1065.21 204.4V322.2L1081.41 324.2C1081.95 326.2 1081.95 328.667 1081.41 331.6C1073.01 331.2 1063.88 331 1054.01 331C1046.81 331 1037.61 331.133 1026.41 331.4C1025.61 328.067 1025.61 325.667 1026.41 324.2L1043.01 321.8C1043.55 316.733 1043.81 308.933 1043.81 298.4ZM1096.87 277.8C1096.87 269.8 1098 262.333 1100.27 255.4C1102.67 248.333 1106.07 242.2 1110.47 237C1114.87 231.8 1120.14 227.733 1126.27 224.8C1132.54 221.733 1139.54 220.2 1147.27 220.2C1154.87 220.2 1161.8 221.733 1168.07 224.8C1174.34 227.733 1179.67 231.8 1184.07 237C1188.6 242.2 1192.07 248.333 1194.47 255.4C1196.87 262.333 1198.07 269.8 1198.07 277.8C1198.07 286.067 1196.8 293.667 1194.27 300.6C1191.87 307.533 1188.4 313.6 1183.87 318.8C1179.47 323.867 1174.14 327.867 1167.87 330.8C1161.6 333.6 1154.74 335 1147.27 335C1139.4 335 1132.34 333.6 1126.07 330.8C1119.94 328 1114.67 324.067 1110.27 319C1106 313.933 1102.67 307.933 1100.27 301C1098 293.933 1096.87 286.2 1096.87 277.8ZM1126.07 241C1120.34 249.133 1117.47 261.4 1117.47 277.8C1117.47 285.933 1118.2 293.067 1119.67 299.2C1121.27 305.333 1123.4 310.467 1126.07 314.6C1128.74 318.6 1131.87 321.6 1135.47 323.6C1139.07 325.6 1143 326.6 1147.27 326.6C1151.4 326.6 1155.34 325.6 1159.07 323.6C1162.8 321.6 1166 318.6 1168.67 314.6C1171.34 310.467 1173.47 305.333 1175.07 299.2C1176.67 293.067 1177.47 285.933 1177.47 277.8C1177.47 269.667 1176.67 262.533 1175.07 256.4C1173.47 250.133 1171.27 245 1168.47 241C1165.8 236.867 1162.6 233.8 1158.87 231.8C1155.27 229.667 1151.4 228.6 1147.27 228.6C1139 228.6 1131.94 232.733 1126.07 241ZM1302.23 249.8C1299.43 252.733 1292.83 254.133 1282.43 254C1280.3 237.2 1274.23 228.8 1264.23 228.8C1256.36 228.8 1249.7 233.333 1244.23 242.4C1238.76 251.467 1236.03 263.4 1236.03 278.2C1236.03 293.4 1238.43 305.133 1243.23 313.4C1248.03 321.533 1255.23 325.6 1264.83 325.6C1274.96 325.6 1284.9 321.467 1294.63 313.2C1296.63 314.4 1298.16 316.467 1299.23 319.4C1289.5 329.8 1277.3 335 1262.63 335C1248.63 335 1237.16 330.2 1228.23 320.6C1219.3 310.867 1214.83 296.6 1214.83 277.8C1214.83 259.8 1219.76 245.733 1229.63 235.6C1239.63 225.333 1251.03 220.2 1263.83 220.2C1273.96 220.2 1282.9 222.733 1290.63 227.8C1298.36 232.867 1302.23 240.2 1302.23 249.8ZM1329.37 201.2C1329.37 192.4 1329.17 185.867 1328.77 181.6L1312.97 179.6C1312.44 177.6 1312.44 175.067 1312.97 172C1321.91 171.333 1333.31 169.933 1347.17 167.8C1348.37 169.133 1349.04 170.467 1349.17 171.8C1348.51 175.267 1348.17 186.067 1348.17 204.2V242C1358.04 228.4 1369.91 221.6 1383.77 221.6C1392.04 221.6 1399.11 223.667 1404.97 227.8C1410.84 231.933 1413.77 239 1413.77 249V320.8L1429.97 323.8C1430.51 325.933 1430.51 328.6 1429.97 331.8C1421.57 331.4 1413.04 331.2 1404.37 331.2C1398.24 331.2 1389.57 331.333 1378.37 331.6C1377.57 329.067 1377.57 326.467 1378.37 323.8L1394.17 321.6C1394.71 314.267 1394.97 305.8 1394.97 296.2V259C1394.97 249.667 1393.77 242.933 1391.37 238.8C1389.11 234.667 1384.91 232.6 1378.77 232.6C1373.71 232.6 1368.37 234.467 1362.77 238.2C1357.31 241.933 1352.44 247.333 1348.17 254.4V320.8L1364.37 323.8C1364.91 325.933 1364.91 328.6 1364.37 331.8C1355.97 331.4 1347.44 331.2 1338.77 331.2C1332.64 331.2 1323.97 331.333 1312.77 331.6C1311.97 329.067 1311.97 326.467 1312.77 323.8L1328.57 321.6C1329.11 314.267 1329.37 305.8 1329.37 296.2V201.2ZM1477.59 326.2C1484.79 326.2 1490.12 324.533 1493.59 321.2C1497.06 317.867 1498.79 314 1498.79 309.6C1498.79 307.067 1498.39 304.733 1497.59 302.6C1496.79 300.467 1495.46 298.4 1493.59 296.4C1491.86 294.4 1489.52 292.467 1486.59 290.6C1483.66 288.6 1479.99 286.467 1475.59 284.2C1470.12 281.4 1465.39 278.733 1461.39 276.2C1457.52 273.667 1454.32 271 1451.79 268.2C1449.26 265.4 1447.32 262.4 1445.99 259.2C1444.79 256 1444.19 252.4 1444.19 248.4C1444.19 243.6 1445.06 239.467 1446.79 236C1448.52 232.4 1450.92 229.467 1453.99 227.2C1457.19 224.8 1460.92 223.067 1465.19 222C1469.46 220.8 1474.19 220.2 1479.39 220.2C1489.79 220.2 1499.92 222.733 1509.79 227.8V253.4H1500.39L1495.99 231.8C1490.12 229 1483.92 227.6 1477.39 227.6C1466.46 227.6 1460.99 232.067 1460.99 241C1460.99 245.8 1462.79 250.2 1466.39 254.2C1469.99 258.2 1475.79 262.2 1483.79 266.2C1489.26 269 1494.06 271.667 1498.19 274.2C1502.32 276.733 1505.72 279.4 1508.39 282.2C1511.19 285 1513.26 288.067 1514.59 291.4C1516.06 294.6 1516.79 298.267 1516.79 302.4C1516.79 307.067 1515.79 311.4 1513.79 315.4C1511.79 319.4 1508.99 322.867 1505.39 325.8C1501.79 328.6 1497.46 330.8 1492.39 332.4C1487.32 334.133 1481.72 335 1475.59 335C1463.72 335 1452.59 332.467 1442.19 327.4V301.8H1451.59L1455.99 321.6C1462.79 324.667 1469.99 326.2 1477.59 326.2ZM1552.18 304.4C1552.18 311.333 1553.45 316.267 1555.98 319.2C1558.52 322 1562.52 323.4 1567.98 323.4C1571.98 323.4 1576.38 322.2 1581.18 319.8C1586.12 317.267 1590.65 313.667 1594.78 309V277.8C1581.05 278.6 1570.52 281.067 1563.18 285.2C1555.85 289.2 1552.18 295.6 1552.18 304.4ZM1594.78 270.6V260.4C1594.78 249.067 1593.45 240.867 1590.78 235.8C1588.25 230.6 1583.98 228 1577.98 228C1571.85 228 1566.92 230 1563.18 234C1559.45 237.867 1556.92 244.533 1555.58 254C1551.32 254.933 1548.18 255.4 1546.18 255.4C1540.98 255.4 1537.92 253.533 1536.98 249.8C1536.98 240.733 1540.92 233.533 1548.78 228.2C1556.65 222.867 1566.45 220.2 1578.18 220.2C1591.12 220.2 1600.25 222.867 1605.58 228.2C1611.05 233.4 1613.78 242.8 1613.78 256.4V312.8C1613.78 316.133 1613.98 319 1614.38 321.4L1630.18 323.4C1630.72 325.4 1630.72 327.933 1630.18 331C1620.72 331.4 1610.65 332.333 1599.98 333.8C1598.92 332.733 1598.25 331.4 1597.98 329.8L1596.98 316C1585.92 328.667 1573.58 335 1559.98 335C1551.58 335 1544.98 332.6 1540.18 327.8C1535.52 323 1533.18 316.533 1533.18 308.4C1533.18 296.133 1538.72 286.867 1549.78 280.6C1560.98 274.333 1575.98 271 1594.78 270.6ZM1671.42 204.2V320.8L1687.62 323.8C1688.15 325.933 1688.15 328.6 1687.62 331.8C1679.22 331.4 1670.62 331.2 1661.82 331.2C1655.69 331.2 1647.02 331.333 1635.82 331.6C1635.02 329.067 1635.02 326.467 1635.82 323.8L1651.62 321.6C1652.15 314.267 1652.42 305.8 1652.42 296.2V181.6L1636.02 179.6C1635.49 177.6 1635.49 175.067 1636.02 172C1645.22 171.333 1656.69 169.933 1670.42 167.8C1671.62 169.133 1672.29 170.467 1672.42 171.8C1671.75 175.267 1671.42 186.067 1671.42 204.2Z" fill="#D2D2D2"/>
</g>
<g clip-path="url(#clip3_233_78)">
<path opacity="0.05" d="M8.85391 448.8C8.85391 440.8 9.98724 433.333 12.2539 426.4C14.6539 419.333 18.0539 413.2 22.4539 408C26.8539 402.8 32.1206 398.733 38.2539 395.8C44.5206 392.733 51.5206 391.2 59.2539 391.2C66.8539 391.2 73.7873 392.733 80.0539 395.8C86.3206 398.733 91.6539 402.8 96.0539 408C100.587 413.2 104.054 419.333 106.454 426.4C108.854 433.333 110.054 440.8 110.054 448.8C110.054 457.067 108.787 464.667 106.254 471.6C103.854 478.533 100.387 484.6 95.8539 489.8C91.4539 494.867 86.1206 498.867 79.8539 501.8C73.5873 504.6 66.7206 506 59.2539 506C51.3872 506 44.3206 504.6 38.0539 501.8C31.9206 499 26.6539 495.067 22.2539 490C17.9872 484.933 14.6539 478.933 12.2539 472C9.98724 464.933 8.85391 457.2 8.85391 448.8ZM38.0539 412C32.3206 420.133 29.4539 432.4 29.4539 448.8C29.4539 456.933 30.1872 464.067 31.6539 470.2C33.2539 476.333 35.3872 481.467 38.0539 485.6C40.7206 489.6 43.8539 492.6 47.4539 494.6C51.0539 496.6 54.9872 497.6 59.2539 497.6C63.3872 497.6 67.3206 496.6 71.0539 494.6C74.7873 492.6 77.9873 489.6 80.6539 485.6C83.3206 481.467 85.4539 476.333 87.0539 470.2C88.6539 464.067 89.4539 456.933 89.4539 448.8C89.4539 440.667 88.6539 433.533 87.0539 427.4C85.4539 421.133 83.2539 416 80.4539 412C77.7873 407.867 74.5873 404.8 70.8539 402.8C67.2539 400.667 63.3872 399.6 59.2539 399.6C50.9872 399.6 43.9206 403.733 38.0539 412ZM139.013 372.2C139.013 363.4 138.813 356.867 138.413 352.6L122.613 350.6C122.08 348.6 122.08 346.067 122.613 343C131.547 342.333 142.947 340.933 156.813 338.8C158.013 340.133 158.68 341.467 158.813 342.8C158.147 346.267 157.813 357.067 157.813 375.2V413C167.68 399.4 179.547 392.6 193.413 392.6C201.68 392.6 208.747 394.667 214.613 398.8C220.48 402.933 223.413 410 223.413 420V491.8L239.613 494.8C240.147 496.933 240.147 499.6 239.613 502.8C231.213 502.4 222.68 502.2 214.013 502.2C207.88 502.2 199.213 502.333 188.013 502.6C187.213 500.067 187.213 497.467 188.013 494.8L203.813 492.6C204.347 485.267 204.613 476.8 204.613 467.2V430C204.613 420.667 203.413 413.933 201.013 409.8C198.747 405.667 194.547 403.6 188.413 403.6C183.347 403.6 178.013 405.467 172.413 409.2C166.947 412.933 162.08 418.333 157.813 425.4V491.8L174.013 494.8C174.547 496.933 174.547 499.6 174.013 502.8C165.613 502.4 157.08 502.2 148.413 502.2C142.28 502.2 133.613 502.333 122.413 502.6C121.613 500.067 121.613 497.467 122.413 494.8L138.213 492.6C138.747 485.267 139.013 476.8 139.013 467.2V372.2ZM284.432 427.6V491.8L300.632 494.8C300.765 495.467 300.832 496.067 300.832 496.6C300.965 497.133 301.032 497.733 301.032 498.4C301.032 499.067 300.965 499.8 300.832 500.6C300.832 501.267 300.765 502 300.632 502.8C292.232 502.4 283.632 502.2 274.832 502.2C271.765 502.2 268.032 502.2 263.632 502.2C259.365 502.333 254.432 502.467 248.832 502.6C248.432 501.4 248.232 500.133 248.232 498.8C248.232 497.6 248.432 496.267 248.832 494.8L264.632 492.6C264.899 488.867 265.099 484.933 265.232 480.8C265.365 476.533 265.432 472 265.432 467.2V424.6C265.432 415.8 265.232 409.267 264.832 405L249.032 403C248.765 402.333 248.632 401.2 248.632 399.6C248.632 398.933 248.632 398.267 248.632 397.6C248.632 396.933 248.765 396.2 249.032 395.4C258.099 394.867 269.565 393.467 283.432 391.2C284.632 392.533 285.299 393.867 285.432 395.2C284.765 398.933 284.432 409.733 284.432 427.6ZM255.232 356.2C254.965 355.533 254.832 354.867 254.832 354.2C254.832 353.4 254.832 352.667 254.832 352C254.832 348.4 256.299 345.533 259.232 343.4C262.299 341.133 266.032 340 270.432 340C274.565 340 277.899 341.267 280.432 343.8C283.099 346.2 284.432 349.533 284.432 353.8C284.432 357.267 282.899 360.067 279.832 362.2C276.899 364.333 273.099 365.4 268.432 365.4C265.232 365.4 262.365 364.6 259.832 363C257.432 361.4 255.899 359.133 255.232 356.2Z" fill="#D2D2D2"/>
<path d="M476.827 469.4V354.4L416.427 508H411.227L353.027 359.4V469.4C353.027 479.933 353.293 487.733 353.827 492.8L372.427 495.2C373.227 497.6 373.227 500 372.427 502.4C360.96 502.133 352.827 502 348.027 502C340.027 502 331.96 502.2 323.827 502.6C323.293 499.667 323.293 497.2 323.827 495.2L342.027 493.2V375.4C342.027 364.867 341.76 357.067 341.227 352L324.627 349.6C323.827 347.333 323.827 345.067 324.627 342.8H368.627L418.827 474.4L470.227 342.8C473.293 342.933 477.96 343 484.227 343C485.56 343 496.027 342.8 515.627 342.4C516.427 344.8 516.427 347.2 515.627 349.6L499.027 352C498.493 357.067 498.227 364.867 498.227 375.4V493.2L514.427 495.2C514.96 497.2 514.96 499.667 514.427 502.6C506.027 502.2 496.893 502 487.027 502C479.827 502 470.627 502.133 459.427 502.4C458.627 499.067 458.627 496.667 459.427 495.2L476.027 492.8C476.56 487.733 476.827 479.933 476.827 469.4ZM529.881 448.8C529.881 440.8 531.015 433.333 533.281 426.4C535.681 419.333 539.081 413.2 543.481 408C547.881 402.8 553.148 398.733 559.281 395.8C565.548 392.733 572.548 391.2 580.281 391.2C587.881 391.2 594.815 392.733 601.081 395.8C607.348 398.733 612.681 402.8 617.081 408C621.615 413.2 625.081 419.333 627.481 426.4C629.881 433.333 631.081 440.8 631.081 448.8C631.081 457.067 629.815 464.667 627.281 471.6C624.881 478.533 621.415 484.6 616.881 489.8C612.481 494.867 607.148 498.867 600.881 501.8C594.615 504.6 587.748 506 580.281 506C572.415 506 565.348 504.6 559.081 501.8C552.948 499 547.681 495.067 543.281 490C539.015 484.933 535.681 478.933 533.281 472C531.015 464.933 529.881 457.2 529.881 448.8ZM559.081 412C553.348 420.133 550.481 432.4 550.481 448.8C550.481 456.933 551.215 464.067 552.681 470.2C554.281 476.333 556.415 481.467 559.081 485.6C561.748 489.6 564.881 492.6 568.481 494.6C572.081 496.6 576.015 497.6 580.281 497.6C584.415 497.6 588.348 496.6 592.081 494.6C595.815 492.6 599.015 489.6 601.681 485.6C604.348 481.467 606.481 476.333 608.081 470.2C609.681 464.067 610.481 456.933 610.481 448.8C610.481 440.667 609.681 433.533 608.081 427.4C606.481 421.133 604.281 416 601.481 412C598.815 407.867 595.615 404.8 591.881 402.8C588.281 400.667 584.415 399.6 580.281 399.6C572.015 399.6 564.948 403.733 559.081 412ZM735.241 420.8C732.441 423.733 725.841 425.133 715.441 425C713.307 408.2 707.241 399.8 697.241 399.8C689.374 399.8 682.707 404.333 677.241 413.4C671.774 422.467 669.041 434.4 669.041 449.2C669.041 464.4 671.441 476.133 676.241 484.4C681.041 492.533 688.241 496.6 697.841 496.6C707.974 496.6 717.907 492.467 727.641 484.2C729.641 485.4 731.174 487.467 732.241 490.4C722.507 500.8 710.307 506 695.641 506C681.641 506 670.174 501.2 661.241 491.6C652.307 481.867 647.841 467.6 647.841 448.8C647.841 430.8 652.774 416.733 662.641 406.6C672.641 396.333 684.041 391.2 696.841 391.2C706.974 391.2 715.907 393.733 723.641 398.8C731.374 403.867 735.241 411.2 735.241 420.8ZM762.384 372.2C762.384 363.4 762.184 356.867 761.784 352.6L745.984 350.6C745.451 348.6 745.451 346.067 745.984 343C754.918 342.333 766.318 340.933 780.184 338.8C781.384 340.133 782.051 341.467 782.184 342.8C781.518 346.267 781.184 357.067 781.184 375.2V413C791.051 399.4 802.918 392.6 816.784 392.6C825.051 392.6 832.118 394.667 837.984 398.8C843.851 402.933 846.784 410 846.784 420V491.8L862.984 494.8C863.518 496.933 863.518 499.6 862.984 502.8C854.584 502.4 846.051 502.2 837.384 502.2C831.251 502.2 822.584 502.333 811.384 502.6C810.584 500.067 810.584 497.467 811.384 494.8L827.184 492.6C827.718 485.267 827.984 476.8 827.984 467.2V430C827.984 420.667 826.784 413.933 824.384 409.8C822.118 405.667 817.918 403.6 811.784 403.6C806.718 403.6 801.384 405.467 795.784 409.2C790.318 412.933 785.451 418.333 781.184 425.4V491.8L797.384 494.8C797.918 496.933 797.918 499.6 797.384 502.8C788.984 502.4 780.451 502.2 771.784 502.2C765.651 502.2 756.984 502.333 745.784 502.6C744.984 500.067 744.984 497.467 745.784 494.8L761.584 492.6C762.118 485.267 762.384 476.8 762.384 467.2V372.2ZM910.603 497.2C917.803 497.2 923.137 495.533 926.603 492.2C930.07 488.867 931.803 485 931.803 480.6C931.803 478.067 931.403 475.733 930.603 473.6C929.803 471.467 928.47 469.4 926.603 467.4C924.87 465.4 922.537 463.467 919.603 461.6C916.67 459.6 913.003 457.467 908.603 455.2C903.137 452.4 898.403 449.733 894.403 447.2C890.537 444.667 887.337 442 884.803 439.2C882.27 436.4 880.337 433.4 879.003 430.2C877.803 427 877.203 423.4 877.203 419.4C877.203 414.6 878.07 410.467 879.803 407C881.537 403.4 883.937 400.467 887.003 398.2C890.203 395.8 893.937 394.067 898.203 393C902.47 391.8 907.203 391.2 912.403 391.2C922.803 391.2 932.937 393.733 942.803 398.8V424.4H933.403L929.003 402.8C923.137 400 916.937 398.6 910.403 398.6C899.47 398.6 894.003 403.067 894.003 412C894.003 416.8 895.803 421.2 899.403 425.2C903.003 429.2 908.803 433.2 916.803 437.2C922.27 440 927.07 442.667 931.203 445.2C935.337 447.733 938.737 450.4 941.403 453.2C944.203 456 946.27 459.067 947.603 462.4C949.07 465.6 949.803 469.267 949.803 473.4C949.803 478.067 948.803 482.4 946.803 486.4C944.803 490.4 942.003 493.867 938.403 496.8C934.803 499.6 930.47 501.8 925.403 503.4C920.337 505.133 914.737 506 908.603 506C896.737 506 885.603 503.467 875.203 498.4V472.8H884.603L889.003 492.6C895.803 495.667 903.003 497.2 910.603 497.2ZM985.195 475.4C985.195 482.333 986.462 487.267 988.995 490.2C991.529 493 995.529 494.4 1001 494.4C1005 494.4 1009.4 493.2 1014.2 490.8C1019.13 488.267 1023.66 484.667 1027.8 480V448.8C1014.06 449.6 1003.53 452.067 996.195 456.2C988.862 460.2 985.195 466.6 985.195 475.4ZM1027.8 441.6V431.4C1027.8 420.067 1026.46 411.867 1023.8 406.8C1021.26 401.6 1017 399 1011 399C1004.86 399 999.929 401 996.195 405C992.462 408.867 989.929 415.533 988.595 425C984.329 425.933 981.195 426.4 979.195 426.4C973.995 426.4 970.929 424.533 969.995 420.8C969.995 411.733 973.929 404.533 981.795 399.2C989.662 393.867 999.462 391.2 1011.2 391.2C1024.13 391.2 1033.26 393.867 1038.6 399.2C1044.06 404.4 1046.8 413.8 1046.8 427.4V483.8C1046.8 487.133 1047 490 1047.4 492.4L1063.2 494.4C1063.73 496.4 1063.73 498.933 1063.2 502C1053.73 502.4 1043.66 503.333 1033 504.8C1031.93 503.733 1031.26 502.4 1031 500.8L1030 487C1018.93 499.667 1006.6 506 992.995 506C984.595 506 977.995 503.6 973.195 498.8C968.529 494 966.195 487.533 966.195 479.4C966.195 467.133 971.729 457.867 982.795 451.6C993.995 445.333 1009 442 1027.8 441.6ZM1102.83 502L1074.23 502.6C1073.43 500.2 1073.43 497.8 1074.23 495.4L1090.83 493.2C1091.36 486.4 1091.63 478.533 1091.63 469.6V351.6L1075.43 349.6C1074.9 347.6 1074.9 345.133 1075.43 342.2C1082.76 342.733 1091.9 343 1102.83 343C1112.56 343 1121.76 342.8 1130.43 342.4C1131.23 344.8 1131.23 347.2 1130.43 349.6L1113.83 352C1113.3 357.067 1113.03 364.867 1113.03 375.4V491.8H1179.03L1188.43 455.6C1190.43 455.067 1192.9 455.067 1195.83 455.6L1195.63 502H1102.83Z" fill="url(#paint0_linear_233_78)"/>
<path opacity="0.05" d="M1254.05 395.2L1253.65 415.8C1256.99 409.667 1261.59 404.067 1267.45 399C1273.45 393.8 1279.12 391.2 1284.45 391.2C1288.59 391.2 1292.25 391.667 1295.45 392.6C1296.52 394.333 1297.05 396.6 1297.05 399.4C1297.05 403.8 1296.12 408.2 1294.25 412.6C1289.45 411.267 1284.85 410.6 1280.45 410.6C1269.52 410.6 1260.52 415.933 1253.45 426.6L1253.05 461.6V491.8L1275.25 494.8C1275.79 496.933 1275.79 499.6 1275.25 502.8C1266.85 502.4 1257.25 502.2 1246.45 502.2C1238.32 502.2 1228.65 502.333 1217.45 502.6C1216.65 500.067 1216.65 497.467 1217.45 494.8L1233.25 492.6C1233.79 485.267 1234.05 476.8 1234.05 467.2V412.4C1234.05 409.733 1233.85 407.267 1233.45 405L1217.65 403C1217.12 401 1217.12 398.467 1217.65 395.4C1226.85 394.733 1238.32 393.333 1252.05 391.2C1253.25 392.533 1253.92 393.867 1254.05 395.2ZM1325.37 475.4C1325.37 482.333 1326.63 487.267 1329.17 490.2C1331.7 493 1335.7 494.4 1341.17 494.4C1345.17 494.4 1349.57 493.2 1354.37 490.8C1359.3 488.267 1363.83 484.667 1367.97 480V448.8C1354.23 449.6 1343.7 452.067 1336.37 456.2C1329.03 460.2 1325.37 466.6 1325.37 475.4ZM1367.97 441.6V431.4C1367.97 420.067 1366.63 411.867 1363.97 406.8C1361.43 401.6 1357.17 399 1351.17 399C1345.03 399 1340.1 401 1336.37 405C1332.63 408.867 1330.1 415.533 1328.77 425C1324.5 425.933 1321.37 426.4 1319.37 426.4C1314.17 426.4 1311.1 424.533 1310.17 420.8C1310.17 411.733 1314.1 404.533 1321.97 399.2C1329.83 393.867 1339.63 391.2 1351.37 391.2C1364.3 391.2 1373.43 393.867 1378.77 399.2C1384.23 404.4 1386.97 413.8 1386.97 427.4V483.8C1386.97 487.133 1387.17 490 1387.57 492.4L1403.37 494.4C1403.9 496.4 1403.9 498.933 1403.37 502C1393.9 502.4 1383.83 503.333 1373.17 504.8C1372.1 503.733 1371.43 502.4 1371.17 500.8L1370.17 487C1359.1 499.667 1346.77 506 1333.17 506C1324.77 506 1318.17 503.6 1313.37 498.8C1308.7 494 1306.37 487.533 1306.37 479.4C1306.37 467.133 1311.9 457.867 1322.97 451.6C1334.17 445.333 1349.17 442 1367.97 441.6ZM1460.6 338.8C1480.47 338.8 1490.4 346.667 1490.4 362.4C1487.6 365.333 1480.94 366.733 1470.4 366.6C1469.07 352.6 1465.67 345.6 1460.2 345.6C1455.14 345.6 1451.54 349.667 1449.4 357.8C1447.4 365.8 1446.4 380.467 1446.4 401.8H1474.6C1475.4 404.333 1475.4 406.933 1474.6 409.6L1446.4 413.8V490.8L1470.6 494.8C1471.4 497.467 1471.4 500.133 1470.6 502.8C1462.2 502.4 1451.87 502.2 1439.6 502.2C1432.4 502.2 1423.2 502.333 1412 502.6C1410.94 500.2 1410.94 497.6 1412 494.8L1426.6 491.6C1427.14 484.533 1427.4 476.4 1427.4 467.2V411.8L1413.2 409.6C1412.4 406.933 1412.4 404.333 1413.2 401.8H1427.4V388.2C1427.4 380.2 1428.54 372.6 1430.8 365.4C1433.07 358.067 1436.8 351.8 1442 346.6C1447.34 341.4 1453.54 338.8 1460.6 338.8ZM1507.59 475.4C1507.59 482.333 1508.86 487.267 1511.39 490.2C1513.93 493 1517.93 494.4 1523.39 494.4C1527.39 494.4 1531.79 493.2 1536.59 490.8C1541.53 488.267 1546.06 484.667 1550.19 480V448.8C1536.46 449.6 1525.93 452.067 1518.59 456.2C1511.26 460.2 1507.59 466.6 1507.59 475.4ZM1550.19 441.6V431.4C1550.19 420.067 1548.86 411.867 1546.19 406.8C1543.66 401.6 1539.39 399 1533.39 399C1527.26 399 1522.33 401 1518.59 405C1514.86 408.867 1512.33 415.533 1510.99 425C1506.73 425.933 1503.59 426.4 1501.59 426.4C1496.39 426.4 1493.33 424.533 1492.39 420.8C1492.39 411.733 1496.33 404.533 1504.19 399.2C1512.06 393.867 1521.86 391.2 1533.59 391.2C1546.53 391.2 1555.66 393.867 1560.99 399.2C1566.46 404.4 1569.19 413.8 1569.19 427.4V483.8C1569.19 487.133 1569.39 490 1569.79 492.4L1585.59 494.4C1586.13 496.4 1586.13 498.933 1585.59 502C1576.13 502.4 1566.06 503.333 1555.39 504.8C1554.33 503.733 1553.66 502.4 1553.39 500.8L1552.39 487C1541.33 499.667 1528.99 506 1515.39 506C1506.99 506 1500.39 503.6 1495.59 498.8C1490.93 494 1488.59 487.533 1488.59 479.4C1488.59 467.133 1494.13 457.867 1505.19 451.6C1516.39 445.333 1531.39 442 1550.19 441.6ZM1692.63 473.6C1692.63 482.533 1692.83 488.8 1693.23 492.4L1709.03 494.4C1709.43 496.533 1709.43 499.067 1709.03 502C1699.3 502.4 1689.16 503.333 1678.63 504.8C1677.7 503.867 1677.03 502.6 1676.63 501L1675.63 488.2C1670.96 493.667 1665.16 498.067 1658.23 501.4C1651.3 504.6 1644.03 506.2 1636.43 506.2C1624.83 506.2 1615.23 501.4 1607.63 491.8C1600.03 482.067 1596.23 469.133 1596.23 453C1596.23 434.333 1601.16 419.4 1611.03 408.2C1621.03 396.867 1632.96 391.2 1646.83 391.2C1657.76 391.2 1666.7 393.8 1673.63 399V372.2C1673.63 363.4 1673.43 356.867 1673.03 352.6L1657.23 350.6C1656.7 348.6 1656.7 346.067 1657.23 343C1666.43 342.333 1677.9 340.933 1691.63 338.8C1692.83 340.133 1693.5 341.467 1693.63 342.8C1692.96 346.267 1692.63 357.067 1692.63 375.2V473.6ZM1645.23 402C1636.56 402 1629.63 406.6 1624.43 415.8C1619.23 424.867 1616.63 437.467 1616.63 453.6C1616.63 466.8 1619.03 476.867 1623.83 483.8C1628.76 490.733 1635.23 494.2 1643.23 494.2C1648.03 494.2 1653.3 492.733 1659.03 489.8C1664.76 486.733 1669.63 482.533 1673.63 477.2V413.2C1667.1 405.733 1657.63 402 1645.23 402ZM1732.83 372.2C1732.83 363.4 1732.63 356.867 1732.23 352.6L1716.43 350.6C1715.9 348.6 1715.9 346.067 1716.43 343C1725.36 342.333 1736.76 340.933 1750.63 338.8C1751.83 340.133 1752.5 341.467 1752.63 342.8C1751.96 346.267 1751.63 357.067 1751.63 375.2V413C1761.5 399.4 1773.36 392.6 1787.23 392.6C1795.5 392.6 1802.56 394.667 1808.43 398.8C1814.3 402.933 1817.23 410 1817.23 420V491.8L1833.43 494.8C1833.96 496.933 1833.96 499.6 1833.43 502.8C1825.03 502.4 1816.5 502.2 1807.83 502.2C1801.7 502.2 1793.03 502.333 1781.83 502.6C1781.03 500.067 1781.03 497.467 1781.83 494.8L1797.63 492.6C1798.16 485.267 1798.43 476.8 1798.43 467.2V430C1798.43 420.667 1797.23 413.933 1794.83 409.8C1792.56 405.667 1788.36 403.6 1782.23 403.6C1777.16 403.6 1771.83 405.467 1766.23 409.2C1760.76 412.933 1755.9 418.333 1751.63 425.4V491.8L1767.83 494.8C1768.36 496.933 1768.36 499.6 1767.83 502.8C1759.43 502.4 1750.9 502.2 1742.23 502.2C1736.1 502.2 1727.43 502.333 1716.23 502.6C1715.43 500.067 1715.43 497.467 1716.23 494.8L1732.03 492.6C1732.56 485.267 1732.83 476.8 1732.83 467.2V372.2ZM1876.05 375.2V491.8L1892.25 494.8C1892.78 496.933 1892.78 499.6 1892.25 502.8C1883.85 502.4 1875.25 502.2 1866.45 502.2C1860.32 502.2 1851.65 502.333 1840.45 502.6C1839.65 500.067 1839.65 497.467 1840.45 494.8L1856.25 492.6C1856.78 485.267 1857.05 476.8 1857.05 467.2V352.6L1840.65 350.6C1840.12 348.6 1840.12 346.067 1840.65 343C1849.85 342.333 1861.32 340.933 1875.05 338.8C1876.25 340.133 1876.92 341.467 1877.05 342.8C1876.38 346.267 1876.05 357.067 1876.05 375.2ZM1938.01 427.6V491.8L1954.21 494.8C1954.35 495.467 1954.41 496.067 1954.41 496.6C1954.55 497.133 1954.61 497.733 1954.61 498.4C1954.61 499.067 1954.55 499.8 1954.41 500.6C1954.41 501.267 1954.35 502 1954.21 502.8C1945.81 502.4 1937.21 502.2 1928.41 502.2C1925.35 502.2 1921.61 502.2 1917.21 502.2C1912.95 502.333 1908.01 502.467 1902.41 502.6C1902.01 501.4 1901.81 500.133 1901.81 498.8C1901.81 497.6 1902.01 496.267 1902.41 494.8L1918.21 492.6C1918.48 488.867 1918.68 484.933 1918.81 480.8C1918.95 476.533 1919.01 472 1919.01 467.2V424.6C1919.01 415.8 1918.81 409.267 1918.41 405L1902.61 403C1902.35 402.333 1902.21 401.2 1902.21 399.6C1902.21 398.933 1902.21 398.267 1902.21 397.6C1902.21 396.933 1902.35 396.2 1902.61 395.4C1911.68 394.867 1923.15 393.467 1937.01 391.2C1938.21 392.533 1938.88 393.867 1939.01 395.2C1938.35 398.933 1938.01 409.733 1938.01 427.6ZM1908.81 356.2C1908.55 355.533 1908.41 354.867 1908.41 354.2C1908.41 353.4 1908.41 352.667 1908.41 352C1908.41 348.4 1909.88 345.533 1912.81 343.4C1915.88 341.133 1919.61 340 1924.01 340C1928.15 340 1931.48 341.267 1934.01 343.8C1936.68 346.2 1938.01 349.533 1938.01 353.8C1938.01 357.267 1936.48 360.067 1933.41 362.2C1930.48 364.333 1926.68 365.4 1922.01 365.4C1918.81 365.4 1915.95 364.6 1913.41 363C1911.01 361.4 1909.48 359.133 1908.81 356.2ZM1978.73 372.2C1978.73 363.4 1978.53 356.867 1978.13 352.6L1962.33 350.6C1961.8 348.6 1961.8 346.067 1962.33 343C1971.26 342.333 1982.66 340.933 1996.53 338.8C1997.73 340.133 1998.4 341.467 1998.53 342.8C1997.86 346.267 1997.53 357.067 1997.53 375.2V413C2007.4 399.4 2019.26 392.6 2033.13 392.6C2041.4 392.6 2048.46 394.667 2054.33 398.8C2060.2 402.933 2063.13 410 2063.13 420V491.8L2079.33 494.8C2079.86 496.933 2079.86 499.6 2079.33 502.8C2070.93 502.4 2062.4 502.2 2053.73 502.2C2047.6 502.2 2038.93 502.333 2027.73 502.6C2026.93 500.067 2026.93 497.467 2027.73 494.8L2043.53 492.6C2044.06 485.267 2044.33 476.8 2044.33 467.2V430C2044.33 420.667 2043.13 413.933 2040.73 409.8C2038.46 405.667 2034.26 403.6 2028.13 403.6C2023.06 403.6 2017.73 405.467 2012.13 409.2C2006.66 412.933 2001.8 418.333 1997.53 425.4V491.8L2013.73 494.8C2014.26 496.933 2014.26 499.6 2013.73 502.8C2005.33 502.4 1996.8 502.2 1988.13 502.2C1982 502.2 1973.33 502.333 1962.13 502.6C1961.33 500.067 1961.33 497.467 1962.13 494.8L1977.93 492.6C1978.46 485.267 1978.73 476.8 1978.73 467.2V372.2Z" fill="#D2D2D2"/>
</g>
<g opacity="0.05" clip-path="url(#clip4_233_78)">
<path d="M161.815 640.4V525.4L101.415 679H96.2149L38.0149 530.4V640.4C38.0149 650.933 38.2815 658.733 38.8148 663.8L57.4149 666.2C58.2149 668.6 58.2149 671 57.4149 673.4C45.9482 673.133 37.8148 673 33.0148 673C25.0148 673 16.9482 673.2 8.81485 673.6C8.28151 670.667 8.28151 668.2 8.81485 666.2L27.0148 664.2L27.0148 546.4C27.0148 535.867 26.7482 528.067 26.2148 523L9.61485 520.6C8.81485 518.333 8.81485 516.067 9.61485 513.8H53.6149L103.815 645.4L155.215 513.8C158.282 513.933 162.948 514 169.215 514C170.548 514 181.015 513.8 200.615 513.4C201.415 515.8 201.415 518.2 200.615 520.6L184.015 523C183.482 528.067 183.215 535.867 183.215 546.4V664.2L199.415 666.2C199.948 668.2 199.948 670.667 199.415 673.6C191.015 673.2 181.882 673 172.015 673C164.815 673 155.615 673.133 144.415 673.4C143.615 670.067 143.615 667.667 144.415 666.2L161.015 663.8C161.548 658.733 161.815 650.933 161.815 640.4ZM214.87 619.8C214.87 611.8 216.003 604.333 218.27 597.4C220.67 590.333 224.07 584.2 228.47 579C232.87 573.8 238.136 569.733 244.27 566.8C250.536 563.733 257.536 562.2 265.27 562.2C272.87 562.2 279.803 563.733 286.07 566.8C292.336 569.733 297.67 573.8 302.07 579C306.603 584.2 310.07 590.333 312.47 597.4C314.87 604.333 316.07 611.8 316.07 619.8C316.07 628.067 314.803 635.667 312.27 642.6C309.87 649.533 306.403 655.6 301.87 660.8C297.47 665.867 292.136 669.867 285.87 672.8C279.603 675.6 272.736 677 265.27 677C257.403 677 250.336 675.6 244.07 672.8C237.936 670 232.67 666.067 228.27 661C224.003 655.933 220.67 649.933 218.27 643C216.003 635.933 214.87 628.2 214.87 619.8ZM244.07 583C238.336 591.133 235.47 603.4 235.47 619.8C235.47 627.933 236.203 635.067 237.67 641.2C239.27 647.333 241.403 652.467 244.07 656.6C246.736 660.6 249.87 663.6 253.47 665.6C257.07 667.6 261.003 668.6 265.27 668.6C269.403 668.6 273.336 667.6 277.07 665.6C280.803 663.6 284.003 660.6 286.67 656.6C289.336 652.467 291.47 647.333 293.07 641.2C294.67 635.067 295.47 627.933 295.47 619.8C295.47 611.667 294.67 604.533 293.07 598.4C291.47 592.133 289.27 587 286.47 583C283.803 578.867 280.603 575.8 276.87 573.8C273.27 571.667 269.403 570.6 265.27 570.6C257.003 570.6 249.936 574.733 244.07 583ZM420.229 591.8C417.429 594.733 410.829 596.133 400.429 596C398.296 579.2 392.229 570.8 382.229 570.8C374.362 570.8 367.696 575.333 362.229 584.4C356.762 593.467 354.029 605.4 354.029 620.2C354.029 635.4 356.429 647.133 361.229 655.4C366.029 663.533 373.229 667.6 382.829 667.6C392.962 667.6 402.896 663.467 412.629 655.2C414.629 656.4 416.162 658.467 417.229 661.4C407.496 671.8 395.296 677 380.629 677C366.629 677 355.162 672.2 346.229 662.6C337.296 652.867 332.829 638.6 332.829 619.8C332.829 601.8 337.762 587.733 347.629 577.6C357.629 567.333 369.029 562.2 381.829 562.2C391.962 562.2 400.896 564.733 408.629 569.8C416.362 574.867 420.229 582.2 420.229 591.8ZM447.373 543.2C447.373 534.4 447.173 527.867 446.773 523.6L430.973 521.6C430.439 519.6 430.439 517.067 430.973 514C439.906 513.333 451.306 511.933 465.173 509.8C466.373 511.133 467.039 512.467 467.173 513.8C466.506 517.267 466.173 528.067 466.173 546.2V584C476.039 570.4 487.906 563.6 501.773 563.6C510.039 563.6 517.106 565.667 522.973 569.8C528.839 573.933 531.773 581 531.773 591V662.8L547.973 665.8C548.506 667.933 548.506 670.6 547.973 673.8C539.573 673.4 531.039 673.2 522.373 673.2C516.239 673.2 507.573 673.333 496.373 673.6C495.573 671.067 495.573 668.467 496.373 665.8L512.173 663.6C512.706 656.267 512.973 647.8 512.973 638.2V601C512.973 591.667 511.773 584.933 509.373 580.8C507.106 576.667 502.906 574.6 496.773 574.6C491.706 574.6 486.373 576.467 480.773 580.2C475.306 583.933 470.439 589.333 466.173 596.4V662.8L482.373 665.8C482.906 667.933 482.906 670.6 482.373 673.8C473.973 673.4 465.439 673.2 456.773 673.2C450.639 673.2 441.973 673.333 430.773 673.6C429.973 671.067 429.973 668.467 430.773 665.8L446.573 663.6C447.106 656.267 447.373 647.8 447.373 638.2V543.2ZM595.591 668.2C602.791 668.2 608.125 666.533 611.591 663.2C615.058 659.867 616.791 656 616.791 651.6C616.791 649.067 616.391 646.733 615.591 644.6C614.791 642.467 613.458 640.4 611.591 638.4C609.858 636.4 607.525 634.467 604.591 632.6C601.658 630.6 597.991 628.467 593.591 626.2C588.125 623.4 583.391 620.733 579.391 618.2C575.525 615.667 572.325 613 569.791 610.2C567.258 607.4 565.325 604.4 563.991 601.2C562.791 598 562.191 594.4 562.191 590.4C562.191 585.6 563.058 581.467 564.791 578C566.525 574.4 568.925 571.467 571.991 569.2C575.191 566.8 578.925 565.067 583.191 564C587.458 562.8 592.191 562.2 597.391 562.2C607.791 562.2 617.925 564.733 627.791 569.8V595.4H618.391L613.991 573.8C608.125 571 601.925 569.6 595.391 569.6C584.458 569.6 578.991 574.067 578.991 583C578.991 587.8 580.791 592.2 584.391 596.2C587.991 600.2 593.791 604.2 601.791 608.2C607.258 611 612.058 613.667 616.191 616.2C620.325 618.733 623.725 621.4 626.391 624.2C629.191 627 631.258 630.067 632.591 633.4C634.058 636.6 634.791 640.267 634.791 644.4C634.791 649.067 633.791 653.4 631.791 657.4C629.791 661.4 626.991 664.867 623.391 667.8C619.791 670.6 615.458 672.8 610.391 674.4C605.325 676.133 599.725 677 593.591 677C581.725 677 570.591 674.467 560.191 669.4V643.8H569.591L573.991 663.6C580.791 666.667 587.991 668.2 595.591 668.2ZM670.184 646.4C670.184 653.333 671.45 658.267 673.984 661.2C676.517 664 680.517 665.4 685.984 665.4C689.984 665.4 694.384 664.2 699.184 661.8C704.117 659.267 708.65 655.667 712.784 651V619.8C699.05 620.6 688.517 623.067 681.184 627.2C673.85 631.2 670.184 637.6 670.184 646.4ZM712.784 612.6V602.4C712.784 591.067 711.45 582.867 708.784 577.8C706.25 572.6 701.984 570 695.984 570C689.85 570 684.917 572 681.184 576C677.45 579.867 674.917 586.533 673.584 596C669.317 596.933 666.184 597.4 664.184 597.4C658.984 597.4 655.917 595.533 654.984 591.8C654.984 582.733 658.917 575.533 666.784 570.2C674.65 564.867 684.45 562.2 696.184 562.2C709.117 562.2 718.25 564.867 723.584 570.2C729.05 575.4 731.784 584.8 731.784 598.4V654.8C731.784 658.133 731.984 661 732.384 663.4L748.184 665.4C748.717 667.4 748.717 669.933 748.184 673C738.717 673.4 728.65 674.333 717.984 675.8C716.917 674.733 716.25 673.4 715.984 671.8L714.984 658C703.917 670.667 691.584 677 677.984 677C669.584 677 662.984 674.6 658.184 669.8C653.517 665 651.184 658.533 651.184 650.4C651.184 638.133 656.717 628.867 667.784 622.6C678.984 616.333 693.984 613 712.784 612.6ZM789.42 546.2V662.8L805.62 665.8C806.153 667.933 806.153 670.6 805.62 673.8C797.22 673.4 788.62 673.2 779.82 673.2C773.686 673.2 765.02 673.333 753.82 673.6C753.02 671.067 753.02 668.467 753.82 665.8L769.62 663.6C770.153 656.267 770.42 647.8 770.42 638.2V523.6L754.02 521.6C753.486 519.6 753.486 517.067 754.02 514C763.22 513.333 774.686 511.933 788.42 509.8C789.62 511.133 790.286 512.467 790.42 513.8C789.753 517.267 789.42 528.067 789.42 546.2Z" fill="#D2D2D2"/>
<path d="M863.053 566.2L862.653 586.8C865.987 580.667 870.587 575.067 876.453 570C882.453 564.8 888.12 562.2 893.453 562.2C897.587 562.2 901.253 562.667 904.453 563.6C905.52 565.333 906.053 567.6 906.053 570.4C906.053 574.8 905.12 579.2 903.253 583.6C898.453 582.267 893.853 581.6 889.453 581.6C878.52 581.6 869.52 586.933 862.453 597.6L862.053 632.6L862.053 662.8L884.253 665.8C884.787 667.933 884.787 670.6 884.253 673.8C875.853 673.4 866.253 673.2 855.453 673.2C847.32 673.2 837.653 673.333 826.453 673.6C825.653 671.067 825.653 668.467 826.453 665.8L842.253 663.6C842.787 656.267 843.053 647.8 843.053 638.2V583.4C843.053 580.733 842.853 578.267 842.453 576L826.653 574C826.12 572 826.12 569.467 826.653 566.4C835.853 565.733 847.32 564.333 861.053 562.2C862.253 563.533 862.92 564.867 863.053 566.2ZM934.367 646.4C934.367 653.333 935.634 658.267 938.167 661.2C940.701 664 944.701 665.4 950.167 665.4C954.167 665.4 958.567 664.2 963.367 661.8C968.301 659.267 972.834 655.667 976.967 651V619.8C963.234 620.6 952.701 623.067 945.367 627.2C938.034 631.2 934.367 637.6 934.367 646.4ZM976.967 612.6V602.4C976.967 591.067 975.634 582.867 972.967 577.8C970.434 572.6 966.167 570 960.167 570C954.034 570 949.101 572 945.367 576C941.634 579.867 939.101 586.533 937.767 596C933.501 596.933 930.367 597.4 928.367 597.4C923.167 597.4 920.101 595.533 919.167 591.8C919.167 582.733 923.101 575.533 930.967 570.2C938.834 564.867 948.634 562.2 960.367 562.2C973.301 562.2 982.434 564.867 987.767 570.2C993.234 575.4 995.967 584.8 995.967 598.4V654.8C995.967 658.133 996.167 661 996.567 663.4L1012.37 665.4C1012.9 667.4 1012.9 669.933 1012.37 673C1002.9 673.4 992.834 674.333 982.167 675.8C981.101 674.733 980.434 673.4 980.167 671.8L979.167 658C968.101 670.667 955.767 677 942.167 677C933.767 677 927.167 674.6 922.367 669.8C917.701 665 915.367 658.533 915.367 650.4C915.367 638.133 920.901 628.867 931.967 622.6C943.167 616.333 958.167 613 976.967 612.6ZM1069.6 509.8C1089.47 509.8 1099.4 517.667 1099.4 533.4C1096.6 536.333 1089.94 537.733 1079.4 537.6C1078.07 523.6 1074.67 516.6 1069.2 516.6C1064.14 516.6 1060.54 520.667 1058.4 528.8C1056.4 536.8 1055.4 551.467 1055.4 572.8H1083.6C1084.4 575.333 1084.4 577.933 1083.6 580.6L1055.4 584.8V661.8L1079.6 665.8C1080.4 668.467 1080.4 671.133 1079.6 673.8C1071.2 673.4 1060.87 673.2 1048.6 673.2C1041.4 673.2 1032.2 673.333 1021 673.6C1019.94 671.2 1019.94 668.6 1021 665.8L1035.6 662.6C1036.14 655.533 1036.4 647.4 1036.4 638.2V582.8L1022.2 580.6C1021.4 577.933 1021.4 575.333 1022.2 572.8H1036.4V559.2C1036.4 551.2 1037.54 543.6 1039.8 536.4C1042.07 529.067 1045.8 522.8 1051 517.6C1056.34 512.4 1062.54 509.8 1069.6 509.8ZM1116.59 646.4C1116.59 653.333 1117.86 658.267 1120.39 661.2C1122.93 664 1126.93 665.4 1132.39 665.4C1136.39 665.4 1140.79 664.2 1145.59 661.8C1150.53 659.267 1155.06 655.667 1159.19 651V619.8C1145.46 620.6 1134.93 623.067 1127.59 627.2C1120.26 631.2 1116.59 637.6 1116.59 646.4ZM1159.19 612.6V602.4C1159.19 591.067 1157.86 582.867 1155.19 577.8C1152.66 572.6 1148.39 570 1142.39 570C1136.26 570 1131.33 572 1127.59 576C1123.86 579.867 1121.33 586.533 1119.99 596C1115.73 596.933 1112.59 597.4 1110.59 597.4C1105.39 597.4 1102.33 595.533 1101.39 591.8C1101.39 582.733 1105.33 575.533 1113.19 570.2C1121.06 564.867 1130.86 562.2 1142.59 562.2C1155.53 562.2 1164.66 564.867 1169.99 570.2C1175.46 575.4 1178.19 584.8 1178.19 598.4V654.8C1178.19 658.133 1178.39 661 1178.79 663.4L1194.59 665.4C1195.13 667.4 1195.13 669.933 1194.59 673C1185.13 673.4 1175.06 674.333 1164.39 675.8C1163.33 674.733 1162.66 673.4 1162.39 671.8L1161.39 658C1150.33 670.667 1137.99 677 1124.39 677C1115.99 677 1109.39 674.6 1104.59 669.8C1099.93 665 1097.59 658.533 1097.59 650.4C1097.59 638.133 1103.13 628.867 1114.19 622.6C1125.39 616.333 1140.39 613 1159.19 612.6ZM1301.63 644.6C1301.63 653.533 1301.83 659.8 1302.23 663.4L1318.03 665.4C1318.43 667.533 1318.43 670.067 1318.03 673C1308.3 673.4 1298.16 674.333 1287.63 675.8C1286.7 674.867 1286.03 673.6 1285.63 672L1284.63 659.2C1279.96 664.667 1274.16 669.067 1267.23 672.4C1260.3 675.6 1253.03 677.2 1245.43 677.2C1233.83 677.2 1224.23 672.4 1216.63 662.8C1209.03 653.067 1205.23 640.133 1205.23 624C1205.23 605.333 1210.16 590.4 1220.03 579.2C1230.03 567.867 1241.96 562.2 1255.83 562.2C1266.76 562.2 1275.7 564.8 1282.63 570V543.2C1282.63 534.4 1282.43 527.867 1282.03 523.6L1266.23 521.6C1265.7 519.6 1265.7 517.067 1266.23 514C1275.43 513.333 1286.9 511.933 1300.63 509.8C1301.83 511.133 1302.5 512.467 1302.63 513.8C1301.96 517.267 1301.63 528.067 1301.63 546.2V644.6ZM1254.23 573C1245.56 573 1238.63 577.6 1233.43 586.8C1228.23 595.867 1225.63 608.467 1225.63 624.6C1225.63 637.8 1228.03 647.867 1232.83 654.8C1237.76 661.733 1244.23 665.2 1252.23 665.2C1257.03 665.2 1262.3 663.733 1268.03 660.8C1273.76 657.733 1278.63 653.533 1282.63 648.2V584.2C1276.1 576.733 1266.63 573 1254.23 573ZM1341.83 543.2C1341.83 534.4 1341.63 527.867 1341.23 523.6L1325.43 521.6C1324.9 519.6 1324.9 517.067 1325.43 514C1334.36 513.333 1345.76 511.933 1359.63 509.8C1360.83 511.133 1361.5 512.467 1361.63 513.8C1360.96 517.267 1360.63 528.067 1360.63 546.2V584C1370.5 570.4 1382.36 563.6 1396.23 563.6C1404.5 563.6 1411.56 565.667 1417.43 569.8C1423.3 573.933 1426.23 581 1426.23 591V662.8L1442.43 665.8C1442.96 667.933 1442.96 670.6 1442.43 673.8C1434.03 673.4 1425.5 673.2 1416.83 673.2C1410.7 673.2 1402.03 673.333 1390.83 673.6C1390.03 671.067 1390.03 668.467 1390.83 665.8L1406.63 663.6C1407.16 656.267 1407.43 647.8 1407.43 638.2V601C1407.43 591.667 1406.23 584.933 1403.83 580.8C1401.56 576.667 1397.36 574.6 1391.23 574.6C1386.16 574.6 1380.83 576.467 1375.23 580.2C1369.76 583.933 1364.9 589.333 1360.63 596.4V662.8L1376.83 665.8C1377.36 667.933 1377.36 670.6 1376.83 673.8C1368.43 673.4 1359.9 673.2 1351.23 673.2C1345.1 673.2 1336.43 673.333 1325.23 673.6C1324.43 671.067 1324.43 668.467 1325.23 665.8L1341.03 663.6C1341.56 656.267 1341.83 647.8 1341.83 638.2V543.2ZM1485.05 546.2V662.8L1501.25 665.8C1501.78 667.933 1501.78 670.6 1501.25 673.8C1492.85 673.4 1484.25 673.2 1475.45 673.2C1469.32 673.2 1460.65 673.333 1449.45 673.6C1448.65 671.067 1448.65 668.467 1449.45 665.8L1465.25 663.6C1465.78 656.267 1466.05 647.8 1466.05 638.2V523.6L1449.65 521.6C1449.12 519.6 1449.12 517.067 1449.65 514C1458.85 513.333 1470.32 511.933 1484.05 509.8C1485.25 511.133 1485.92 512.467 1486.05 513.8C1485.38 517.267 1485.05 528.067 1485.05 546.2ZM1547.01 598.6V662.8L1563.21 665.8C1563.35 666.467 1563.41 667.067 1563.41 667.6C1563.55 668.133 1563.61 668.733 1563.61 669.4C1563.61 670.067 1563.55 670.8 1563.41 671.6C1563.41 672.267 1563.35 673 1563.21 673.8C1554.81 673.4 1546.21 673.2 1537.41 673.2C1534.35 673.2 1530.61 673.2 1526.21 673.2C1521.95 673.333 1517.01 673.467 1511.41 673.6C1511.01 672.4 1510.81 671.133 1510.81 669.8C1510.81 668.6 1511.01 667.267 1511.41 665.8L1527.21 663.6C1527.48 659.867 1527.68 655.933 1527.81 651.8C1527.95 647.533 1528.01 643 1528.01 638.2V595.6C1528.01 586.8 1527.81 580.267 1527.41 576L1511.61 574C1511.35 573.333 1511.21 572.2 1511.21 570.6C1511.21 569.933 1511.21 569.267 1511.21 568.6C1511.21 567.933 1511.35 567.2 1511.61 566.4C1520.68 565.867 1532.15 564.467 1546.01 562.2C1547.21 563.533 1547.88 564.867 1548.01 566.2C1547.35 569.933 1547.01 580.733 1547.01 598.6ZM1517.81 527.2C1517.55 526.533 1517.41 525.867 1517.41 525.2C1517.41 524.4 1517.41 523.667 1517.41 523C1517.41 519.4 1518.88 516.533 1521.81 514.4C1524.88 512.133 1528.61 511 1533.01 511C1537.15 511 1540.48 512.267 1543.01 514.8C1545.68 517.2 1547.01 520.533 1547.01 524.8C1547.01 528.267 1545.48 531.067 1542.41 533.2C1539.48 535.333 1535.68 536.4 1531.01 536.4C1527.81 536.4 1524.95 535.6 1522.41 534C1520.01 532.4 1518.48 530.133 1517.81 527.2ZM1587.73 543.2C1587.73 534.4 1587.53 527.867 1587.13 523.6L1571.33 521.6C1570.8 519.6 1570.8 517.067 1571.33 514C1580.26 513.333 1591.66 511.933 1605.53 509.8C1606.73 511.133 1607.4 512.467 1607.53 513.8C1606.86 517.267 1606.53 528.067 1606.53 546.2V584C1616.4 570.4 1628.26 563.6 1642.13 563.6C1650.4 563.6 1657.46 565.667 1663.33 569.8C1669.2 573.933 1672.13 581 1672.13 591V662.8L1688.33 665.8C1688.86 667.933 1688.86 670.6 1688.33 673.8C1679.93 673.4 1671.4 673.2 1662.73 673.2C1656.6 673.2 1647.93 673.333 1636.73 673.6C1635.93 671.067 1635.93 668.467 1636.73 665.8L1652.53 663.6C1653.06 656.267 1653.33 647.8 1653.33 638.2V601C1653.33 591.667 1652.13 584.933 1649.73 580.8C1647.46 576.667 1643.26 574.6 1637.13 574.6C1632.06 574.6 1626.73 576.467 1621.13 580.2C1615.66 583.933 1610.8 589.333 1606.53 596.4V662.8L1622.73 665.8C1623.26 667.933 1623.26 670.6 1622.73 673.8C1614.33 673.4 1605.8 673.2 1597.13 673.2C1591 673.2 1582.33 673.333 1571.13 673.6C1570.33 671.067 1570.33 668.467 1571.13 665.8L1586.93 663.6C1587.46 656.267 1587.73 647.8 1587.73 638.2V543.2Z" fill="#D2D2D2"/>
</g>
<g opacity="0.05" clip-path="url(#clip5_233_78)">
<path d="M43.0531 737.2L42.6531 757.8C45.9865 751.667 50.5865 746.067 56.4531 741C62.4531 735.8 68.1198 733.2 73.4531 733.2C77.5865 733.2 81.2531 733.667 84.4531 734.6C85.5198 736.333 86.0531 738.6 86.0531 741.4C86.0531 745.8 85.1198 750.2 83.2531 754.6C78.4531 753.267 73.8531 752.6 69.4531 752.6C58.5198 752.6 49.5198 757.933 42.4531 768.6L42.0531 803.6L42.0531 833.8L64.2531 836.8C64.7865 838.933 64.7865 841.6 64.2531 844.8C55.8531 844.4 46.2531 844.2 35.4531 844.2C27.3198 844.2 17.6531 844.333 6.45313 844.6C5.65313 842.067 5.65313 839.467 6.45313 836.8L22.2531 834.6C22.7865 827.267 23.0531 818.8 23.0531 809.2V754.4C23.0531 751.733 22.8531 749.267 22.4531 747L6.65313 745C6.11979 743 6.11979 740.467 6.65313 737.4C15.8531 736.733 27.3198 735.333 41.0531 733.2C42.2531 734.533 42.9198 735.867 43.0531 737.2ZM114.367 817.4C114.367 824.333 115.634 829.267 118.167 832.2C120.701 835 124.701 836.4 130.167 836.4C134.167 836.4 138.567 835.2 143.367 832.8C148.301 830.267 152.834 826.667 156.967 822V790.8C143.234 791.6 132.701 794.067 125.367 798.2C118.034 802.2 114.367 808.6 114.367 817.4ZM156.967 783.6V773.4C156.967 762.067 155.634 753.867 152.967 748.8C150.434 743.6 146.167 741 140.167 741C134.034 741 129.101 743 125.367 747C121.634 750.867 119.101 757.533 117.767 767C113.501 767.933 110.367 768.4 108.367 768.4C103.167 768.4 100.101 766.533 99.1672 762.8C99.1672 753.733 103.101 746.533 110.967 741.2C118.834 735.867 128.634 733.2 140.367 733.2C153.301 733.2 162.434 735.867 167.767 741.2C173.234 746.4 175.967 755.8 175.967 769.4V825.8C175.967 829.133 176.167 832 176.567 834.4L192.367 836.4C192.901 838.4 192.901 840.933 192.367 844C182.901 844.4 172.834 845.333 162.167 846.8C161.101 845.733 160.434 844.4 160.167 842.8L159.167 829C148.101 841.667 135.767 848 122.167 848C113.767 848 107.167 845.6 102.367 840.8C97.7005 836 95.3672 829.533 95.3672 821.4C95.3672 809.133 100.901 799.867 111.967 793.6C123.167 787.333 138.167 784 156.967 783.6ZM249.603 680.8C269.47 680.8 279.403 688.667 279.403 704.4C276.603 707.333 269.936 708.733 259.403 708.6C258.07 694.6 254.67 687.6 249.203 687.6C244.136 687.6 240.536 691.667 238.403 699.8C236.403 707.8 235.403 722.467 235.403 743.8H263.603C264.403 746.333 264.403 748.933 263.603 751.6L235.403 755.8V832.8L259.603 836.8C260.403 839.467 260.403 842.133 259.603 844.8C251.203 844.4 240.87 844.2 228.603 844.2C221.403 844.2 212.203 844.333 201.003 844.6C199.936 842.2 199.936 839.6 201.003 836.8L215.603 833.6C216.136 826.533 216.403 818.4 216.403 809.2V753.8L202.203 751.6C201.403 748.933 201.403 746.333 202.203 743.8H216.403V730.2C216.403 722.2 217.536 714.6 219.803 707.4C222.07 700.067 225.803 693.8 231.003 688.6C236.336 683.4 242.536 680.8 249.603 680.8ZM296.594 817.4C296.594 824.333 297.86 829.267 300.394 832.2C302.927 835 306.927 836.4 312.394 836.4C316.394 836.4 320.794 835.2 325.594 832.8C330.527 830.267 335.06 826.667 339.194 822V790.8C325.46 791.6 314.927 794.067 307.594 798.2C300.26 802.2 296.594 808.6 296.594 817.4ZM339.194 783.6V773.4C339.194 762.067 337.86 753.867 335.194 748.8C332.66 743.6 328.394 741 322.394 741C316.26 741 311.327 743 307.594 747C303.86 750.867 301.327 757.533 299.994 767C295.727 767.933 292.594 768.4 290.594 768.4C285.394 768.4 282.327 766.533 281.394 762.8C281.394 753.733 285.327 746.533 293.194 741.2C301.06 735.867 310.86 733.2 322.594 733.2C335.527 733.2 344.66 735.867 349.994 741.2C355.46 746.4 358.194 755.8 358.194 769.4V825.8C358.194 829.133 358.394 832 358.794 834.4L374.594 836.4C375.127 838.4 375.127 840.933 374.594 844C365.127 844.4 355.06 845.333 344.394 846.8C343.327 845.733 342.66 844.4 342.394 842.8L341.394 829C330.327 841.667 317.994 848 304.394 848C295.994 848 289.394 845.6 284.594 840.8C279.927 836 277.594 829.533 277.594 821.4C277.594 809.133 283.127 799.867 294.194 793.6C305.394 787.333 320.394 784 339.194 783.6ZM481.63 815.6C481.63 824.533 481.83 830.8 482.23 834.4L498.03 836.4C498.43 838.533 498.43 841.067 498.03 844C488.296 844.4 478.163 845.333 467.63 846.8C466.696 845.867 466.03 844.6 465.63 843L464.63 830.2C459.963 835.667 454.163 840.067 447.23 843.4C440.296 846.6 433.03 848.2 425.43 848.2C413.83 848.2 404.23 843.4 396.63 833.8C389.03 824.067 385.23 811.133 385.23 795C385.23 776.333 390.163 761.4 400.03 750.2C410.03 738.867 421.963 733.2 435.83 733.2C446.763 733.2 455.696 735.8 462.63 741V714.2C462.63 705.4 462.43 698.867 462.03 694.6L446.23 692.6C445.696 690.6 445.696 688.067 446.23 685C455.43 684.333 466.896 682.933 480.63 680.8C481.83 682.133 482.496 683.467 482.63 684.8C481.963 688.267 481.63 699.067 481.63 717.2V815.6ZM434.23 744C425.563 744 418.63 748.6 413.43 757.8C408.23 766.867 405.63 779.467 405.63 795.6C405.63 808.8 408.03 818.867 412.83 825.8C417.763 832.733 424.23 836.2 432.23 836.2C437.03 836.2 442.296 834.733 448.03 831.8C453.763 828.733 458.63 824.533 462.63 819.2V755.2C456.096 747.733 446.63 744 434.23 744ZM521.83 714.2C521.83 705.4 521.63 698.867 521.23 694.6L505.43 692.6C504.896 690.6 504.896 688.067 505.43 685C514.363 684.333 525.763 682.933 539.63 680.8C540.83 682.133 541.496 683.467 541.63 684.8C540.963 688.267 540.63 699.067 540.63 717.2V755C550.496 741.4 562.363 734.6 576.23 734.6C584.496 734.6 591.563 736.667 597.43 740.8C603.296 744.933 606.23 752 606.23 762V833.8L622.43 836.8C622.963 838.933 622.963 841.6 622.43 844.8C614.03 844.4 605.496 844.2 596.83 844.2C590.696 844.2 582.03 844.333 570.83 844.6C570.03 842.067 570.03 839.467 570.83 836.8L586.63 834.6C587.163 827.267 587.43 818.8 587.43 809.2V772C587.43 762.667 586.23 755.933 583.83 751.8C581.563 747.667 577.363 745.6 571.23 745.6C566.163 745.6 560.83 747.467 555.23 751.2C549.763 754.933 544.896 760.333 540.63 767.4V833.8L556.83 836.8C557.363 838.933 557.363 841.6 556.83 844.8C548.43 844.4 539.896 844.2 531.23 844.2C525.096 844.2 516.43 844.333 505.23 844.6C504.43 842.067 504.43 839.467 505.23 836.8L521.03 834.6C521.563 827.267 521.83 818.8 521.83 809.2V714.2ZM665.049 717.2V833.8L681.249 836.8C681.782 838.933 681.782 841.6 681.249 844.8C672.849 844.4 664.249 844.2 655.449 844.2C649.315 844.2 640.649 844.333 629.449 844.6C628.649 842.067 628.649 839.467 629.449 836.8L645.249 834.6C645.782 827.267 646.049 818.8 646.049 809.2V694.6L629.649 692.6C629.115 690.6 629.115 688.067 629.649 685C638.849 684.333 650.315 682.933 664.049 680.8C665.249 682.133 665.915 683.467 666.049 684.8C665.382 688.267 665.049 699.067 665.049 717.2ZM727.014 769.6V833.8L743.214 836.8C743.347 837.467 743.414 838.067 743.414 838.6C743.547 839.133 743.614 839.733 743.614 840.4C743.614 841.067 743.547 841.8 743.414 842.6C743.414 843.267 743.347 844 743.214 844.8C734.814 844.4 726.214 844.2 717.414 844.2C714.347 844.2 710.614 844.2 706.214 844.2C701.947 844.333 697.014 844.467 691.414 844.6C691.014 843.4 690.814 842.133 690.814 840.8C690.814 839.6 691.014 838.267 691.414 836.8L707.214 834.6C707.481 830.867 707.681 826.933 707.814 822.8C707.947 818.533 708.014 814 708.014 809.2V766.6C708.014 757.8 707.814 751.267 707.414 747L691.614 745C691.347 744.333 691.214 743.2 691.214 741.6C691.214 740.933 691.214 740.267 691.214 739.6C691.214 738.933 691.347 738.2 691.614 737.4C700.681 736.867 712.147 735.467 726.014 733.2C727.214 734.533 727.881 735.867 728.014 737.2C727.347 740.933 727.014 751.733 727.014 769.6ZM697.814 698.2C697.547 697.533 697.414 696.867 697.414 696.2C697.414 695.4 697.414 694.667 697.414 694C697.414 690.4 698.881 687.533 701.814 685.4C704.881 683.133 708.614 682 713.014 682C717.147 682 720.481 683.267 723.014 685.8C725.681 688.2 727.014 691.533 727.014 695.8C727.014 699.267 725.481 702.067 722.414 704.2C719.481 706.333 715.681 707.4 711.014 707.4C707.814 707.4 704.947 706.6 702.414 705C700.014 703.4 698.481 701.133 697.814 698.2ZM767.728 714.2C767.728 705.4 767.528 698.867 767.128 694.6L751.328 692.6C750.795 690.6 750.795 688.067 751.328 685C760.262 684.333 771.662 682.933 785.528 680.8C786.728 682.133 787.395 683.467 787.528 684.8C786.862 688.267 786.528 699.067 786.528 717.2V755C796.395 741.4 808.262 734.6 822.128 734.6C830.395 734.6 837.462 736.667 843.328 740.8C849.195 744.933 852.128 752 852.128 762V833.8L868.328 836.8C868.862 838.933 868.862 841.6 868.328 844.8C859.928 844.4 851.395 844.2 842.728 844.2C836.595 844.2 827.928 844.333 816.728 844.6C815.928 842.067 815.928 839.467 816.728 836.8L832.528 834.6C833.062 827.267 833.328 818.8 833.328 809.2V772C833.328 762.667 832.128 755.933 829.728 751.8C827.462 747.667 823.262 745.6 817.128 745.6C812.062 745.6 806.728 747.467 801.128 751.2C795.662 754.933 790.795 760.333 786.528 767.4V833.8L802.728 836.8C803.262 838.933 803.262 841.6 802.728 844.8C794.328 844.4 785.795 844.2 777.128 844.2C770.995 844.2 762.328 844.333 751.128 844.6C750.328 842.067 750.328 839.467 751.128 836.8L766.928 834.6C767.462 827.267 767.728 818.8 767.728 809.2V714.2Z" fill="#D2D2D2"/>
<path d="M1043.81 811.4V696.4L983.415 850H978.215L920.015 701.4V811.4C920.015 821.933 920.282 829.733 920.815 834.8L939.415 837.2C940.215 839.6 940.215 842 939.415 844.4C927.948 844.133 919.815 844 915.015 844C907.015 844 898.948 844.2 890.815 844.6C890.282 841.667 890.282 839.2 890.815 837.2L909.015 835.2V717.4C909.015 706.867 908.748 699.067 908.215 694L891.615 691.6C890.815 689.333 890.815 687.067 891.615 684.8H935.615L985.815 816.4L1037.21 684.8C1040.28 684.933 1044.95 685 1051.21 685C1052.55 685 1063.01 684.8 1082.62 684.4C1083.41 686.8 1083.41 689.2 1082.62 691.6L1066.01 694C1065.48 699.067 1065.21 706.867 1065.21 717.4V835.2L1081.41 837.2C1081.95 839.2 1081.95 841.667 1081.41 844.6C1073.01 844.2 1063.88 844 1054.01 844C1046.81 844 1037.61 844.133 1026.41 844.4C1025.61 841.067 1025.61 838.667 1026.41 837.2L1043.01 834.8C1043.55 829.733 1043.81 821.933 1043.81 811.4ZM1096.87 790.8C1096.87 782.8 1098 775.333 1100.27 768.4C1102.67 761.333 1106.07 755.2 1110.47 750C1114.87 744.8 1120.14 740.733 1126.27 737.8C1132.54 734.733 1139.54 733.2 1147.27 733.2C1154.87 733.2 1161.8 734.733 1168.07 737.8C1174.34 740.733 1179.67 744.8 1184.07 750C1188.6 755.2 1192.07 761.333 1194.47 768.4C1196.87 775.333 1198.07 782.8 1198.07 790.8C1198.07 799.067 1196.8 806.667 1194.27 813.6C1191.87 820.533 1188.4 826.6 1183.87 831.8C1179.47 836.867 1174.14 840.867 1167.87 843.8C1161.6 846.6 1154.74 848 1147.27 848C1139.4 848 1132.34 846.6 1126.07 843.8C1119.94 841 1114.67 837.067 1110.27 832C1106 826.933 1102.67 820.933 1100.27 814C1098 806.933 1096.87 799.2 1096.87 790.8ZM1126.07 754C1120.34 762.133 1117.47 774.4 1117.47 790.8C1117.47 798.933 1118.2 806.067 1119.67 812.2C1121.27 818.333 1123.4 823.467 1126.07 827.6C1128.74 831.6 1131.87 834.6 1135.47 836.6C1139.07 838.6 1143 839.6 1147.27 839.6C1151.4 839.6 1155.34 838.6 1159.07 836.6C1162.8 834.6 1166 831.6 1168.67 827.6C1171.34 823.467 1173.47 818.333 1175.07 812.2C1176.67 806.067 1177.47 798.933 1177.47 790.8C1177.47 782.667 1176.67 775.533 1175.07 769.4C1173.47 763.133 1171.27 758 1168.47 754C1165.8 749.867 1162.6 746.8 1158.87 744.8C1155.27 742.667 1151.4 741.6 1147.27 741.6C1139 741.6 1131.94 745.733 1126.07 754ZM1302.23 762.8C1299.43 765.733 1292.83 767.133 1282.43 767C1280.3 750.2 1274.23 741.8 1264.23 741.8C1256.36 741.8 1249.7 746.333 1244.23 755.4C1238.76 764.467 1236.03 776.4 1236.03 791.2C1236.03 806.4 1238.43 818.133 1243.23 826.4C1248.03 834.533 1255.23 838.6 1264.83 838.6C1274.96 838.6 1284.9 834.467 1294.63 826.2C1296.63 827.4 1298.16 829.467 1299.23 832.4C1289.5 842.8 1277.3 848 1262.63 848C1248.63 848 1237.16 843.2 1228.23 833.6C1219.3 823.867 1214.83 809.6 1214.83 790.8C1214.83 772.8 1219.76 758.733 1229.63 748.6C1239.63 738.333 1251.03 733.2 1263.83 733.2C1273.96 733.2 1282.9 735.733 1290.63 740.8C1298.36 745.867 1302.23 753.2 1302.23 762.8ZM1329.37 714.2C1329.37 705.4 1329.17 698.867 1328.77 694.6L1312.97 692.6C1312.44 690.6 1312.44 688.067 1312.97 685C1321.91 684.333 1333.31 682.933 1347.17 680.8C1348.37 682.133 1349.04 683.467 1349.17 684.8C1348.51 688.267 1348.17 699.067 1348.17 717.2V755C1358.04 741.4 1369.91 734.6 1383.77 734.6C1392.04 734.6 1399.11 736.667 1404.97 740.8C1410.84 744.933 1413.77 752 1413.77 762V833.8L1429.97 836.8C1430.51 838.933 1430.51 841.6 1429.97 844.8C1421.57 844.4 1413.04 844.2 1404.37 844.2C1398.24 844.2 1389.57 844.333 1378.37 844.6C1377.57 842.067 1377.57 839.467 1378.37 836.8L1394.17 834.6C1394.71 827.267 1394.97 818.8 1394.97 809.2V772C1394.97 762.667 1393.77 755.933 1391.37 751.8C1389.11 747.667 1384.91 745.6 1378.77 745.6C1373.71 745.6 1368.37 747.467 1362.77 751.2C1357.31 754.933 1352.44 760.333 1348.17 767.4V833.8L1364.37 836.8C1364.91 838.933 1364.91 841.6 1364.37 844.8C1355.97 844.4 1347.44 844.2 1338.77 844.2C1332.64 844.2 1323.97 844.333 1312.77 844.6C1311.97 842.067 1311.97 839.467 1312.77 836.8L1328.57 834.6C1329.11 827.267 1329.37 818.8 1329.37 809.2V714.2ZM1477.59 839.2C1484.79 839.2 1490.12 837.533 1493.59 834.2C1497.06 830.867 1498.79 827 1498.79 822.6C1498.79 820.067 1498.39 817.733 1497.59 815.6C1496.79 813.467 1495.46 811.4 1493.59 809.4C1491.86 807.4 1489.52 805.467 1486.59 803.6C1483.66 801.6 1479.99 799.467 1475.59 797.2C1470.12 794.4 1465.39 791.733 1461.39 789.2C1457.52 786.667 1454.32 784 1451.79 781.2C1449.26 778.4 1447.32 775.4 1445.99 772.2C1444.79 769 1444.19 765.4 1444.19 761.4C1444.19 756.6 1445.06 752.467 1446.79 749C1448.52 745.4 1450.92 742.467 1453.99 740.2C1457.19 737.8 1460.92 736.067 1465.19 735C1469.46 733.8 1474.19 733.2 1479.39 733.2C1489.79 733.2 1499.92 735.733 1509.79 740.8V766.4H1500.39L1495.99 744.8C1490.12 742 1483.92 740.6 1477.39 740.6C1466.46 740.6 1460.99 745.067 1460.99 754C1460.99 758.8 1462.79 763.2 1466.39 767.2C1469.99 771.2 1475.79 775.2 1483.79 779.2C1489.26 782 1494.06 784.667 1498.19 787.2C1502.32 789.733 1505.72 792.4 1508.39 795.2C1511.19 798 1513.26 801.067 1514.59 804.4C1516.06 807.6 1516.79 811.267 1516.79 815.4C1516.79 820.067 1515.79 824.4 1513.79 828.4C1511.79 832.4 1508.99 835.867 1505.39 838.8C1501.79 841.6 1497.46 843.8 1492.39 845.4C1487.32 847.133 1481.72 848 1475.59 848C1463.72 848 1452.59 845.467 1442.19 840.4V814.8H1451.59L1455.99 834.6C1462.79 837.667 1469.99 839.2 1477.59 839.2ZM1552.18 817.4C1552.18 824.333 1553.45 829.267 1555.98 832.2C1558.52 835 1562.52 836.4 1567.98 836.4C1571.98 836.4 1576.38 835.2 1581.18 832.8C1586.12 830.267 1590.65 826.667 1594.78 822V790.8C1581.05 791.6 1570.52 794.067 1563.18 798.2C1555.85 802.2 1552.18 808.6 1552.18 817.4ZM1594.78 783.6V773.4C1594.78 762.067 1593.45 753.867 1590.78 748.8C1588.25 743.6 1583.98 741 1577.98 741C1571.85 741 1566.92 743 1563.18 747C1559.45 750.867 1556.92 757.533 1555.58 767C1551.32 767.933 1548.18 768.4 1546.18 768.4C1540.98 768.4 1537.92 766.533 1536.98 762.8C1536.98 753.733 1540.92 746.533 1548.78 741.2C1556.65 735.867 1566.45 733.2 1578.18 733.2C1591.12 733.2 1600.25 735.867 1605.58 741.2C1611.05 746.4 1613.78 755.8 1613.78 769.4V825.8C1613.78 829.133 1613.98 832 1614.38 834.4L1630.18 836.4C1630.72 838.4 1630.72 840.933 1630.18 844C1620.72 844.4 1610.65 845.333 1599.98 846.8C1598.92 845.733 1598.25 844.4 1597.98 842.8L1596.98 829C1585.92 841.667 1573.58 848 1559.98 848C1551.58 848 1544.98 845.6 1540.18 840.8C1535.52 836 1533.18 829.533 1533.18 821.4C1533.18 809.133 1538.72 799.867 1549.78 793.6C1560.98 787.333 1575.98 784 1594.78 783.6ZM1671.42 717.2V833.8L1687.62 836.8C1688.15 838.933 1688.15 841.6 1687.62 844.8C1679.22 844.4 1670.62 844.2 1661.82 844.2C1655.69 844.2 1647.02 844.333 1635.82 844.6C1635.02 842.067 1635.02 839.467 1635.82 836.8L1651.62 834.6C1652.15 827.267 1652.42 818.8 1652.42 809.2V694.6L1636.02 692.6C1635.49 690.6 1635.49 688.067 1636.02 685C1645.22 684.333 1656.69 682.933 1670.42 680.8C1671.62 682.133 1672.29 683.467 1672.42 684.8C1671.75 688.267 1671.42 699.067 1671.42 717.2Z" fill="#D2D2D2"/>
</g>
<g opacity="0.05" clip-path="url(#clip6_233_78)">
<path d="M161.815 982.4V867.4L101.415 1021H96.2149L38.0149 872.4V982.4C38.0149 992.933 38.2815 1000.73 38.8148 1005.8L57.4149 1008.2C58.2149 1010.6 58.2149 1013 57.4149 1015.4C45.9482 1015.13 37.8148 1015 33.0148 1015C25.0148 1015 16.9482 1015.2 8.81485 1015.6C8.28151 1012.67 8.28151 1010.2 8.81485 1008.2L27.0148 1006.2L27.0148 888.4C27.0148 877.867 26.7482 870.067 26.2148 865L9.61485 862.6C8.81485 860.333 8.81485 858.067 9.61485 855.8H53.6149L103.815 987.4L155.215 855.8C158.282 855.933 162.948 856 169.215 856C170.548 856 181.015 855.8 200.615 855.4C201.415 857.8 201.415 860.2 200.615 862.6L184.015 865C183.482 870.067 183.215 877.867 183.215 888.4V1006.2L199.415 1008.2C199.948 1010.2 199.948 1012.67 199.415 1015.6C191.015 1015.2 181.882 1015 172.015 1015C164.815 1015 155.615 1015.13 144.415 1015.4C143.615 1012.07 143.615 1009.67 144.415 1008.2L161.015 1005.8C161.548 1000.73 161.815 992.933 161.815 982.4ZM214.87 961.8C214.87 953.8 216.003 946.333 218.27 939.4C220.67 932.333 224.07 926.2 228.47 921C232.87 915.8 238.136 911.733 244.27 908.8C250.536 905.733 257.536 904.2 265.27 904.2C272.87 904.2 279.803 905.733 286.07 908.8C292.336 911.733 297.67 915.8 302.07 921C306.603 926.2 310.07 932.333 312.47 939.4C314.87 946.333 316.07 953.8 316.07 961.8C316.07 970.067 314.803 977.667 312.27 984.6C309.87 991.533 306.403 997.6 301.87 1002.8C297.47 1007.87 292.136 1011.87 285.87 1014.8C279.603 1017.6 272.736 1019 265.27 1019C257.403 1019 250.336 1017.6 244.07 1014.8C237.936 1012 232.67 1008.07 228.27 1003C224.003 997.933 220.67 991.933 218.27 985C216.003 977.933 214.87 970.2 214.87 961.8ZM244.07 925C238.336 933.133 235.47 945.4 235.47 961.8C235.47 969.933 236.203 977.067 237.67 983.2C239.27 989.333 241.403 994.467 244.07 998.6C246.736 1002.6 249.87 1005.6 253.47 1007.6C257.07 1009.6 261.003 1010.6 265.27 1010.6C269.403 1010.6 273.336 1009.6 277.07 1007.6C280.803 1005.6 284.003 1002.6 286.67 998.6C289.336 994.467 291.47 989.333 293.07 983.2C294.67 977.067 295.47 969.933 295.47 961.8C295.47 953.667 294.67 946.533 293.07 940.4C291.47 934.133 289.27 929 286.47 925C283.803 920.867 280.603 917.8 276.87 915.8C273.27 913.667 269.403 912.6 265.27 912.6C257.003 912.6 249.936 916.733 244.07 925ZM420.229 933.8C417.429 936.733 410.829 938.133 400.429 938C398.296 921.2 392.229 912.8 382.229 912.8C374.362 912.8 367.696 917.333 362.229 926.4C356.762 935.467 354.029 947.4 354.029 962.2C354.029 977.4 356.429 989.133 361.229 997.4C366.029 1005.53 373.229 1009.6 382.829 1009.6C392.962 1009.6 402.896 1005.47 412.629 997.2C414.629 998.4 416.162 1000.47 417.229 1003.4C407.496 1013.8 395.296 1019 380.629 1019C366.629 1019 355.162 1014.2 346.229 1004.6C337.296 994.867 332.829 980.6 332.829 961.8C332.829 943.8 337.762 929.733 347.629 919.6C357.629 909.333 369.029 904.2 381.829 904.2C391.962 904.2 400.896 906.733 408.629 911.8C416.362 916.867 420.229 924.2 420.229 933.8ZM447.373 885.2C447.373 876.4 447.173 869.867 446.773 865.6L430.973 863.6C430.439 861.6 430.439 859.067 430.973 856C439.906 855.333 451.306 853.933 465.173 851.8C466.373 853.133 467.039 854.467 467.173 855.8C466.506 859.267 466.173 870.067 466.173 888.2V926C476.039 912.4 487.906 905.6 501.773 905.6C510.039 905.6 517.106 907.667 522.973 911.8C528.839 915.933 531.773 923 531.773 933V1004.8L547.973 1007.8C548.506 1009.93 548.506 1012.6 547.973 1015.8C539.573 1015.4 531.039 1015.2 522.373 1015.2C516.239 1015.2 507.573 1015.33 496.373 1015.6C495.573 1013.07 495.573 1010.47 496.373 1007.8L512.173 1005.6C512.706 998.267 512.973 989.8 512.973 980.2V943C512.973 933.667 511.773 926.933 509.373 922.8C507.106 918.667 502.906 916.6 496.773 916.6C491.706 916.6 486.373 918.467 480.773 922.2C475.306 925.933 470.439 931.333 466.173 938.4V1004.8L482.373 1007.8C482.906 1009.93 482.906 1012.6 482.373 1015.8C473.973 1015.4 465.439 1015.2 456.773 1015.2C450.639 1015.2 441.973 1015.33 430.773 1015.6C429.973 1013.07 429.973 1010.47 430.773 1007.8L446.573 1005.6C447.106 998.267 447.373 989.8 447.373 980.2V885.2ZM595.591 1010.2C602.791 1010.2 608.125 1008.53 611.591 1005.2C615.058 1001.87 616.791 998 616.791 993.6C616.791 991.067 616.391 988.733 615.591 986.6C614.791 984.467 613.458 982.4 611.591 980.4C609.858 978.4 607.525 976.467 604.591 974.6C601.658 972.6 597.991 970.467 593.591 968.2C588.125 965.4 583.391 962.733 579.391 960.2C575.525 957.667 572.325 955 569.791 952.2C567.258 949.4 565.325 946.4 563.991 943.2C562.791 940 562.191 936.4 562.191 932.4C562.191 927.6 563.058 923.467 564.791 920C566.525 916.4 568.925 913.467 571.991 911.2C575.191 908.8 578.925 907.067 583.191 906C587.458 904.8 592.191 904.2 597.391 904.2C607.791 904.2 617.925 906.733 627.791 911.8V937.4H618.391L613.991 915.8C608.125 913 601.925 911.6 595.391 911.6C584.458 911.6 578.991 916.067 578.991 925C578.991 929.8 580.791 934.2 584.391 938.2C587.991 942.2 593.791 946.2 601.791 950.2C607.258 953 612.058 955.667 616.191 958.2C620.325 960.733 623.725 963.4 626.391 966.2C629.191 969 631.258 972.067 632.591 975.4C634.058 978.6 634.791 982.267 634.791 986.4C634.791 991.067 633.791 995.4 631.791 999.4C629.791 1003.4 626.991 1006.87 623.391 1009.8C619.791 1012.6 615.458 1014.8 610.391 1016.4C605.325 1018.13 599.725 1019 593.591 1019C581.725 1019 570.591 1016.47 560.191 1011.4V985.8H569.591L573.991 1005.6C580.791 1008.67 587.991 1010.2 595.591 1010.2ZM670.184 988.4C670.184 995.333 671.45 1000.27 673.984 1003.2C676.517 1006 680.517 1007.4 685.984 1007.4C689.984 1007.4 694.384 1006.2 699.184 1003.8C704.117 1001.27 708.65 997.667 712.784 993V961.8C699.05 962.6 688.517 965.067 681.184 969.2C673.85 973.2 670.184 979.6 670.184 988.4ZM712.784 954.6V944.4C712.784 933.067 711.45 924.867 708.784 919.8C706.25 914.6 701.984 912 695.984 912C689.85 912 684.917 914 681.184 918C677.45 921.867 674.917 928.533 673.584 938C669.317 938.933 666.184 939.4 664.184 939.4C658.984 939.4 655.917 937.533 654.984 933.8C654.984 924.733 658.917 917.533 666.784 912.2C674.65 906.867 684.45 904.2 696.184 904.2C709.117 904.2 718.25 906.867 723.584 912.2C729.05 917.4 731.784 926.8 731.784 940.4V996.8C731.784 1000.13 731.984 1003 732.384 1005.4L748.184 1007.4C748.717 1009.4 748.717 1011.93 748.184 1015C738.717 1015.4 728.65 1016.33 717.984 1017.8C716.917 1016.73 716.25 1015.4 715.984 1013.8L714.984 1000C703.917 1012.67 691.584 1019 677.984 1019C669.584 1019 662.984 1016.6 658.184 1011.8C653.517 1007 651.184 1000.53 651.184 992.4C651.184 980.133 656.717 970.867 667.784 964.6C678.984 958.333 693.984 955 712.784 954.6ZM789.42 888.2V1004.8L805.62 1007.8C806.153 1009.93 806.153 1012.6 805.62 1015.8C797.22 1015.4 788.62 1015.2 779.82 1015.2C773.686 1015.2 765.02 1015.33 753.82 1015.6C753.02 1013.07 753.02 1010.47 753.82 1007.8L769.62 1005.6C770.153 998.267 770.42 989.8 770.42 980.2V865.6L754.02 863.6C753.486 861.6 753.486 859.067 754.02 856C763.22 855.333 774.686 853.933 788.42 851.8C789.62 853.133 790.286 854.467 790.42 855.8C789.753 859.267 789.42 870.067 789.42 888.2Z" fill="#D2D2D2"/>
<path d="M863.053 908.2L862.653 928.8C865.987 922.667 870.587 917.067 876.453 912C882.453 906.8 888.12 904.2 893.453 904.2C897.587 904.2 901.253 904.667 904.453 905.6C905.52 907.333 906.053 909.6 906.053 912.4C906.053 916.8 905.12 921.2 903.253 925.6C898.453 924.267 893.853 923.6 889.453 923.6C878.52 923.6 869.52 928.933 862.453 939.6L862.053 974.6L862.053 1004.8L884.253 1007.8C884.787 1009.93 884.787 1012.6 884.253 1015.8C875.853 1015.4 866.253 1015.2 855.453 1015.2C847.32 1015.2 837.653 1015.33 826.453 1015.6C825.653 1013.07 825.653 1010.47 826.453 1007.8L842.253 1005.6C842.787 998.267 843.053 989.8 843.053 980.2V925.4C843.053 922.733 842.853 920.267 842.453 918L826.653 916C826.12 914 826.12 911.467 826.653 908.4C835.853 907.733 847.32 906.333 861.053 904.2C862.253 905.533 862.92 906.867 863.053 908.2ZM934.367 988.4C934.367 995.333 935.634 1000.27 938.167 1003.2C940.701 1006 944.701 1007.4 950.167 1007.4C954.167 1007.4 958.567 1006.2 963.367 1003.8C968.301 1001.27 972.834 997.667 976.967 993V961.8C963.234 962.6 952.701 965.067 945.367 969.2C938.034 973.2 934.367 979.6 934.367 988.4ZM976.967 954.6V944.4C976.967 933.067 975.634 924.867 972.967 919.8C970.434 914.6 966.167 912 960.167 912C954.034 912 949.101 914 945.367 918C941.634 921.867 939.101 928.533 937.767 938C933.501 938.933 930.367 939.4 928.367 939.4C923.167 939.4 920.101 937.533 919.167 933.8C919.167 924.733 923.101 917.533 930.967 912.2C938.834 906.867 948.634 904.2 960.367 904.2C973.301 904.2 982.434 906.867 987.767 912.2C993.234 917.4 995.967 926.8 995.967 940.4V996.8C995.967 1000.13 996.167 1003 996.567 1005.4L1012.37 1007.4C1012.9 1009.4 1012.9 1011.93 1012.37 1015C1002.9 1015.4 992.834 1016.33 982.167 1017.8C981.101 1016.73 980.434 1015.4 980.167 1013.8L979.167 1000C968.101 1012.67 955.767 1019 942.167 1019C933.767 1019 927.167 1016.6 922.367 1011.8C917.701 1007 915.367 1000.53 915.367 992.4C915.367 980.133 920.901 970.867 931.967 964.6C943.167 958.333 958.167 955 976.967 954.6ZM1069.6 851.8C1089.47 851.8 1099.4 859.667 1099.4 875.4C1096.6 878.333 1089.94 879.733 1079.4 879.6C1078.07 865.6 1074.67 858.6 1069.2 858.6C1064.14 858.6 1060.54 862.667 1058.4 870.8C1056.4 878.8 1055.4 893.467 1055.4 914.8H1083.6C1084.4 917.333 1084.4 919.933 1083.6 922.6L1055.4 926.8V1003.8L1079.6 1007.8C1080.4 1010.47 1080.4 1013.13 1079.6 1015.8C1071.2 1015.4 1060.87 1015.2 1048.6 1015.2C1041.4 1015.2 1032.2 1015.33 1021 1015.6C1019.94 1013.2 1019.94 1010.6 1021 1007.8L1035.6 1004.6C1036.14 997.533 1036.4 989.4 1036.4 980.2V924.8L1022.2 922.6C1021.4 919.933 1021.4 917.333 1022.2 914.8H1036.4V901.2C1036.4 893.2 1037.54 885.6 1039.8 878.4C1042.07 871.067 1045.8 864.8 1051 859.6C1056.34 854.4 1062.54 851.8 1069.6 851.8ZM1116.59 988.4C1116.59 995.333 1117.86 1000.27 1120.39 1003.2C1122.93 1006 1126.93 1007.4 1132.39 1007.4C1136.39 1007.4 1140.79 1006.2 1145.59 1003.8C1150.53 1001.27 1155.06 997.667 1159.19 993V961.8C1145.46 962.6 1134.93 965.067 1127.59 969.2C1120.26 973.2 1116.59 979.6 1116.59 988.4ZM1159.19 954.6V944.4C1159.19 933.067 1157.86 924.867 1155.19 919.8C1152.66 914.6 1148.39 912 1142.39 912C1136.26 912 1131.33 914 1127.59 918C1123.86 921.867 1121.33 928.533 1119.99 938C1115.73 938.933 1112.59 939.4 1110.59 939.4C1105.39 939.4 1102.33 937.533 1101.39 933.8C1101.39 924.733 1105.33 917.533 1113.19 912.2C1121.06 906.867 1130.86 904.2 1142.59 904.2C1155.53 904.2 1164.66 906.867 1169.99 912.2C1175.46 917.4 1178.19 926.8 1178.19 940.4V996.8C1178.19 1000.13 1178.39 1003 1178.79 1005.4L1194.59 1007.4C1195.13 1009.4 1195.13 1011.93 1194.59 1015C1185.13 1015.4 1175.06 1016.33 1164.39 1017.8C1163.33 1016.73 1162.66 1015.4 1162.39 1013.8L1161.39 1000C1150.33 1012.67 1137.99 1019 1124.39 1019C1115.99 1019 1109.39 1016.6 1104.59 1011.8C1099.93 1007 1097.59 1000.53 1097.59 992.4C1097.59 980.133 1103.13 970.867 1114.19 964.6C1125.39 958.333 1140.39 955 1159.19 954.6ZM1301.63 986.6C1301.63 995.533 1301.83 1001.8 1302.23 1005.4L1318.03 1007.4C1318.43 1009.53 1318.43 1012.07 1318.03 1015C1308.3 1015.4 1298.16 1016.33 1287.63 1017.8C1286.7 1016.87 1286.03 1015.6 1285.63 1014L1284.63 1001.2C1279.96 1006.67 1274.16 1011.07 1267.23 1014.4C1260.3 1017.6 1253.03 1019.2 1245.43 1019.2C1233.83 1019.2 1224.23 1014.4 1216.63 1004.8C1209.03 995.067 1205.23 982.133 1205.23 966C1205.23 947.333 1210.16 932.4 1220.03 921.2C1230.03 909.867 1241.96 904.2 1255.83 904.2C1266.76 904.2 1275.7 906.8 1282.63 912V885.2C1282.63 876.4 1282.43 869.867 1282.03 865.6L1266.23 863.6C1265.7 861.6 1265.7 859.067 1266.23 856C1275.43 855.333 1286.9 853.933 1300.63 851.8C1301.83 853.133 1302.5 854.467 1302.63 855.8C1301.96 859.267 1301.63 870.067 1301.63 888.2V986.6ZM1254.23 915C1245.56 915 1238.63 919.6 1233.43 928.8C1228.23 937.867 1225.63 950.467 1225.63 966.6C1225.63 979.8 1228.03 989.867 1232.83 996.8C1237.76 1003.73 1244.23 1007.2 1252.23 1007.2C1257.03 1007.2 1262.3 1005.73 1268.03 1002.8C1273.76 999.733 1278.63 995.533 1282.63 990.2V926.2C1276.1 918.733 1266.63 915 1254.23 915ZM1341.83 885.2C1341.83 876.4 1341.63 869.867 1341.23 865.6L1325.43 863.6C1324.9 861.6 1324.9 859.067 1325.43 856C1334.36 855.333 1345.76 853.933 1359.63 851.8C1360.83 853.133 1361.5 854.467 1361.63 855.8C1360.96 859.267 1360.63 870.067 1360.63 888.2V926C1370.5 912.4 1382.36 905.6 1396.23 905.6C1404.5 905.6 1411.56 907.667 1417.43 911.8C1423.3 915.933 1426.23 923 1426.23 933V1004.8L1442.43 1007.8C1442.96 1009.93 1442.96 1012.6 1442.43 1015.8C1434.03 1015.4 1425.5 1015.2 1416.83 1015.2C1410.7 1015.2 1402.03 1015.33 1390.83 1015.6C1390.03 1013.07 1390.03 1010.47 1390.83 1007.8L1406.63 1005.6C1407.16 998.267 1407.43 989.8 1407.43 980.2V943C1407.43 933.667 1406.23 926.933 1403.83 922.8C1401.56 918.667 1397.36 916.6 1391.23 916.6C1386.16 916.6 1380.83 918.467 1375.23 922.2C1369.76 925.933 1364.9 931.333 1360.63 938.4V1004.8L1376.83 1007.8C1377.36 1009.93 1377.36 1012.6 1376.83 1015.8C1368.43 1015.4 1359.9 1015.2 1351.23 1015.2C1345.1 1015.2 1336.43 1015.33 1325.23 1015.6C1324.43 1013.07 1324.43 1010.47 1325.23 1007.8L1341.03 1005.6C1341.56 998.267 1341.83 989.8 1341.83 980.2V885.2ZM1485.05 888.2V1004.8L1501.25 1007.8C1501.78 1009.93 1501.78 1012.6 1501.25 1015.8C1492.85 1015.4 1484.25 1015.2 1475.45 1015.2C1469.32 1015.2 1460.65 1015.33 1449.45 1015.6C1448.65 1013.07 1448.65 1010.47 1449.45 1007.8L1465.25 1005.6C1465.78 998.267 1466.05 989.8 1466.05 980.2V865.6L1449.65 863.6C1449.12 861.6 1449.12 859.067 1449.65 856C1458.85 855.333 1470.32 853.933 1484.05 851.8C1485.25 853.133 1485.92 854.467 1486.05 855.8C1485.38 859.267 1485.05 870.067 1485.05 888.2ZM1547.01 940.6V1004.8L1563.21 1007.8C1563.35 1008.47 1563.41 1009.07 1563.41 1009.6C1563.55 1010.13 1563.61 1010.73 1563.61 1011.4C1563.61 1012.07 1563.55 1012.8 1563.41 1013.6C1563.41 1014.27 1563.35 1015 1563.21 1015.8C1554.81 1015.4 1546.21 1015.2 1537.41 1015.2C1534.35 1015.2 1530.61 1015.2 1526.21 1015.2C1521.95 1015.33 1517.01 1015.47 1511.41 1015.6C1511.01 1014.4 1510.81 1013.13 1510.81 1011.8C1510.81 1010.6 1511.01 1009.27 1511.41 1007.8L1527.21 1005.6C1527.48 1001.87 1527.68 997.933 1527.81 993.8C1527.95 989.533 1528.01 985 1528.01 980.2V937.6C1528.01 928.8 1527.81 922.267 1527.41 918L1511.61 916C1511.35 915.333 1511.21 914.2 1511.21 912.6C1511.21 911.933 1511.21 911.267 1511.21 910.6C1511.21 909.933 1511.35 909.2 1511.61 908.4C1520.68 907.867 1532.15 906.467 1546.01 904.2C1547.21 905.533 1547.88 906.867 1548.01 908.2C1547.35 911.933 1547.01 922.733 1547.01 940.6ZM1517.81 869.2C1517.55 868.533 1517.41 867.867 1517.41 867.2C1517.41 866.4 1517.41 865.667 1517.41 865C1517.41 861.4 1518.88 858.533 1521.81 856.4C1524.88 854.133 1528.61 853 1533.01 853C1537.15 853 1540.48 854.267 1543.01 856.8C1545.68 859.2 1547.01 862.533 1547.01 866.8C1547.01 870.267 1545.48 873.067 1542.41 875.2C1539.48 877.333 1535.68 878.4 1531.01 878.4C1527.81 878.4 1524.95 877.6 1522.41 876C1520.01 874.4 1518.48 872.133 1517.81 869.2ZM1587.73 885.2C1587.73 876.4 1587.53 869.867 1587.13 865.6L1571.33 863.6C1570.8 861.6 1570.8 859.067 1571.33 856C1580.26 855.333 1591.66 853.933 1605.53 851.8C1606.73 853.133 1607.4 854.467 1607.53 855.8C1606.86 859.267 1606.53 870.067 1606.53 888.2V926C1616.4 912.4 1628.26 905.6 1642.13 905.6C1650.4 905.6 1657.46 907.667 1663.33 911.8C1669.2 915.933 1672.13 923 1672.13 933V1004.8L1688.33 1007.8C1688.86 1009.93 1688.86 1012.6 1688.33 1015.8C1679.93 1015.4 1671.4 1015.2 1662.73 1015.2C1656.6 1015.2 1647.93 1015.33 1636.73 1015.6C1635.93 1013.07 1635.93 1010.47 1636.73 1007.8L1652.53 1005.6C1653.06 998.267 1653.33 989.8 1653.33 980.2V943C1653.33 933.667 1652.13 926.933 1649.73 922.8C1647.46 918.667 1643.26 916.6 1637.13 916.6C1632.06 916.6 1626.73 918.467 1621.13 922.2C1615.66 925.933 1610.8 931.333 1606.53 938.4V1004.8L1622.73 1007.8C1623.26 1009.93 1623.26 1012.6 1622.73 1015.8C1614.33 1015.4 1605.8 1015.2 1597.13 1015.2C1591 1015.2 1582.33 1015.33 1571.13 1015.6C1570.33 1013.07 1570.33 1010.47 1571.13 1007.8L1586.93 1005.6C1587.46 998.267 1587.73 989.8 1587.73 980.2V885.2Z" fill="#D2D2D2"/>
</g>
</g>
<defs>
<linearGradient id="paint0_linear_233_78" x1="443.499" y1="343" x2="1072.5" y2="502" gradientUnits="userSpaceOnUse">
<stop stop-color="white"/>
<stop offset="0.163462" stop-color="#434343"/>
<stop offset="0.350962" stop-color="white"/>
<stop offset="0.509615" stop-color="#525252"/>
<stop offset="0.658654" stop-color="white"/>
<stop offset="0.8125" stop-color="#525252"/>
<stop offset="1" stop-color="white"/>
</linearGradient>
<clipPath id="clip0_233_78">
<rect width="2083" height="1016" fill="white"/>
</clipPath>
<clipPath id="clip1_233_78">
<rect width="2083" height="161" fill="white"/>
</clipPath>
<clipPath id="clip2_233_78">
<rect width="2083" height="161" fill="white" transform="translate(0 171)"/>
</clipPath>
<clipPath id="clip3_233_78">
<rect width="2083" height="161" fill="white" transform="translate(0 342)"/>
</clipPath>
<clipPath id="clip4_233_78">
<rect width="2083" height="161" fill="white" transform="translate(0 513)"/>
</clipPath>
<clipPath id="clip5_233_78">
<rect width="2083" height="161" fill="white" transform="translate(0 684)"/>
</clipPath>
<clipPath id="clip6_233_78">
<rect width="2083" height="161" fill="white" transform="translate(0 855)"/>
</clipPath>
</defs>
</svg>
