<svg width="571" height="220" viewBox="0 0 571 220" fill="none" xmlns="http://www.w3.org/2000/svg">
<rect x="7.5" y="11.5" width="516" height="158" stroke="#D2D2D2"/>
<path d="M159.84 72.11C162.78 65.63 165.36 60.74 167.58 57.44C169.8 54.08 171.87 52.07 173.79 51.41C175.77 50.69 177.09 50.33 177.75 50.33C178.47 50.33 178.83 50.42 178.83 50.6C178.83 50.78 178.44 51.08 177.66 51.5C176.88 51.86 175.53 53.42 173.61 56.18C171.75 58.94 169.38 63.17 166.5 68.87C163.62 74.57 161.1 80.6 158.94 86.96C162.6 86.96 164.91 86.78 165.87 86.42C166.89 86.06 167.49 86 167.67 86.24C167.91 86.48 167.64 86.87 166.86 87.41C164.88 88.79 161.97 89.6 158.13 89.84C158.07 89.96 157.59 91.4 156.69 94.16C153.69 103.46 152.19 109.97 152.19 113.69C152.19 115.79 152.55 117.26 153.27 118.1C154.05 118.94 154.86 119.36 155.7 119.36C156.54 119.36 157.47 119 158.49 118.28C161.91 115.76 165.66 110.33 169.74 101.99C170.22 100.97 170.67 100.55 171.09 100.73C171.57 100.91 171.57 101.54 171.09 102.62C168.87 107.36 167.01 110.84 165.51 113.06C164.07 115.28 162.42 117.32 160.56 119.18C158.1 121.52 155.64 122.69 153.18 122.69C150.42 122.69 148.5 121.55 147.42 119.27C146.88 118.19 146.61 117.2 146.61 116.3C146.61 115.4 146.61 114.47 146.61 113.51C146.67 112.49 146.79 111.2 146.97 109.64C147.15 108.02 147.57 106.04 148.23 103.7C148.95 101.3 149.49 99.5 149.85 98.3C150.27 97.04 150.87 95.36 151.65 93.26C152.43 91.16 152.85 90.02 152.91 89.84C150.33 89.84 140.16 89.45 122.4 88.67C118.74 99.59 112.98 109.37 105.12 118.01C101.28 122.27 96.81 125.84 91.71 128.72C84.87 132.5 77.67 134.39 70.11 134.39C66.93 134.39 63.39 133.91 59.49 132.95C55.59 132.05 51.9 130.28 48.42 127.64C44.94 125.06 42.45 121.55 40.95 117.11C39.51 112.67 39.48 107.75 40.86 102.35C41.58 99.59 43.17 97.01 45.63 94.61C48.15 92.21 50.22 90.98 51.84 90.92C52.44 90.92 52.8 91.01 52.92 91.19C53.04 91.31 52.98 91.49 52.74 91.73C52.56 91.91 52.32 92.06 52.02 92.18C50.22 92.96 48.36 94.67 46.44 97.31C43.92 100.79 42.66 104.84 42.66 109.46C42.66 116.66 46.14 122.03 53.1 125.57C57.3 127.67 62.22 128.72 67.86 128.72C70.32 128.72 72.63 128.48 74.79 128C95.13 123.44 109.44 110.27 117.72 88.49C116.16 88.49 114.63 88.85 113.13 89.57C111.69 90.23 110.73 90.56 110.25 90.56C109.83 90.56 109.59 90.38 109.53 90.02C109.53 89 110.25 88.04 111.69 87.14C113.13 86.18 114.39 85.64 115.47 85.52H118.98C122.82 75.92 127.2 66.2 132.12 56.36C130.56 56.54 128.34 56.75 125.46 56.99C122.58 57.23 120.24 57.44 118.44 57.62C116.64 57.8 114.42 58.1 111.78 58.52C109.14 58.94 106.95 59.45 105.21 60.05C103.47 60.59 101.52 61.37 99.36 62.39C97.26 63.41 95.49 64.58 94.05 65.9C90.63 69.14 88.2 73.1 86.76 77.78C86.16 79.7 85.86 81.74 85.86 83.9C85.86 86.06 86.64 88.16 88.2 90.2C89.76 92.24 91.83 93.26 94.41 93.26C99.51 93.26 103.14 90.32 105.3 84.44C106.32 81.68 106.83 79.76 106.83 78.68C106.83 77.54 106.62 76.7 106.2 76.16C105.84 75.56 105.96 75.2 106.56 75.08C106.98 75.02 107.34 75.26 107.64 75.8C108.36 77.36 108.72 79.04 108.72 80.84C108.72 82.64 108.12 84.59 106.92 86.69C104.88 90.41 102.12 92.9 98.64 94.16C96.96 94.76 95.28 95.06 93.6 95.06C91.92 95.06 90.24 94.7 88.56 93.98C85.38 92.6 83.04 90.26 81.54 86.96C80.58 84.98 80.1 83.09 80.1 81.29C80.1 79.49 80.37 77.45 80.91 75.17C81.51 72.83 82.65 70.46 84.33 68.06C86.01 65.66 88.11 63.74 90.63 62.3C93.15 60.8 95.67 59.57 98.19 58.61C100.71 57.65 103.68 56.93 107.1 56.45C110.58 55.97 113.58 55.61 116.1 55.37C118.68 55.13 121.77 54.92 125.37 54.74C128.97 54.56 131.64 54.38 133.38 54.2C134.04 53.06 135.03 51.68 136.35 50.06C137.73 48.38 138.9 47.42 139.86 47.18C140.82 46.88 141.57 46.73 142.11 46.73C144.33 46.73 145.44 47.69 145.44 49.61C145.44 51.47 144.21 53.03 141.75 54.29C139.29 55.55 136.98 56.18 134.82 56.18C133.2 59.3 130.89 64.88 127.89 72.92C124.95 80.9 123.39 85.1 123.21 85.52C127.71 85.52 133.5 85.79 140.58 86.33C147.72 86.81 152.1 87.05 153.72 87.05C154.92 83.57 156.96 78.59 159.84 72.11ZM140.94 49.52C140.22 49.52 138.72 50.99 136.44 53.93C140.34 53.33 142.26 52.28 142.2 50.78C142.14 50.12 141.81 49.73 141.21 49.61C141.15 49.55 141.06 49.52 140.94 49.52ZM185.657 120.08C182.597 120.08 179.867 119.51 177.467 118.37C175.067 117.17 173.177 115.55 171.797 113.51C170.417 111.47 169.727 109.13 169.727 106.49C169.727 103.97 170.267 101.69 171.347 99.65C172.427 97.55 174.107 95.78 176.387 94.34C178.667 92.9 181.577 91.88 185.117 91.28L204.017 88.13V94.25L186.737 97.13C183.257 97.73 180.737 98.84 179.177 100.46C177.677 102.08 176.927 104 176.927 106.22C176.927 108.38 177.767 110.21 179.447 111.71C181.187 113.21 183.407 113.96 186.107 113.96C189.407 113.96 192.287 113.27 194.747 111.89C197.207 110.45 199.127 108.53 200.507 106.13C201.887 103.73 202.577 101.06 202.577 98.12V85.88C202.577 83 201.527 80.66 199.427 78.86C197.327 77.06 194.597 76.16 191.237 76.16C188.297 76.16 185.717 76.91 183.497 78.41C181.277 79.85 179.627 81.74 178.547 84.08L172.427 80.75C173.327 78.71 174.737 76.85 176.657 75.17C178.637 73.49 180.887 72.17 183.407 71.21C185.927 70.19 188.537 69.68 191.237 69.68C194.777 69.68 197.897 70.37 200.597 71.75C203.357 73.13 205.487 75.05 206.987 77.51C208.547 79.91 209.327 82.7 209.327 85.88V119H202.577V109.37L203.567 110.36C202.727 112.16 201.407 113.81 199.607 115.31C197.867 116.75 195.797 117.92 193.397 118.82C191.057 119.66 188.477 120.08 185.657 120.08ZM226.361 101.63C226.301 101.87 226.031 102.71 225.551 104.15C225.071 105.53 224.651 106.88 224.291 108.2C223.991 109.46 223.841 110.75 223.841 112.07C223.841 113.33 224.141 114.53 224.741 115.67C225.341 116.75 226.301 117.29 227.621 117.29C229.781 117.29 231.881 115.85 233.921 112.97C235.961 110.03 238.121 106.31 240.401 101.81C240.881 100.97 241.331 100.64 241.751 100.82C242.051 101.06 242.111 101.39 241.931 101.81C241.751 102.17 241.361 103.01 240.761 104.33C240.221 105.59 239.801 106.49 239.501 107.03C239.261 107.51 238.781 108.41 238.061 109.73C237.401 110.99 236.801 111.95 236.261 112.61C235.781 113.21 235.091 114.02 234.191 115.04C233.351 116 232.541 116.72 231.761 117.2C229.661 118.52 227.681 119.18 225.821 119.18C223.961 119.18 222.521 118.79 221.501 118.01C220.481 117.17 219.851 116.3 219.611 115.4C219.431 114.44 219.341 113.6 219.341 112.88C219.341 112.16 219.371 111.23 219.431 110.09C219.611 108.17 219.971 106.31 220.511 104.51C221.111 102.71 221.441 101.69 221.501 101.45C222.881 96.47 224.831 91.04 227.351 85.16C229.931 79.28 232.091 74.87 233.831 71.93C235.631 68.93 237.041 66.89 238.061 65.81C240.101 63.65 242.111 62.57 244.091 62.57C245.471 62.57 246.401 63.56 246.881 65.54C246.941 65.9 246.971 66.35 246.971 66.89C246.971 68.93 246.251 71.51 244.811 74.63C239.651 86.09 233.501 95.09 226.361 101.63ZM227.081 98.75C230.141 95.63 233.171 91.7 236.171 86.96C239.171 82.22 241.361 78.2 242.741 74.9C244.181 71.54 244.901 69.26 244.901 68.06C244.901 66.86 244.691 66.26 244.271 66.26C243.671 66.26 242.531 67.46 240.851 69.86C239.171 72.2 236.891 76.46 234.011 82.64C231.191 88.76 228.881 94.13 227.081 98.75ZM264.874 120.08C260.314 120.08 256.174 119 252.454 116.84C248.734 114.62 245.764 111.62 243.544 107.84C241.384 104 240.304 99.65 240.304 94.79C240.304 89.99 241.384 85.7 243.544 81.92C245.704 78.14 248.614 75.17 252.274 73.01C255.994 70.79 260.194 69.68 264.874 69.68C269.554 69.68 273.724 70.76 277.384 72.92C281.104 75.08 284.014 78.05 286.114 81.83C288.274 85.61 289.354 89.93 289.354 94.79C289.354 99.71 288.244 104.09 286.024 107.93C283.804 111.71 280.834 114.68 277.114 116.84C273.454 119 269.374 120.08 264.874 120.08ZM264.874 113.33C268.114 113.33 271.024 112.52 273.604 110.9C276.244 109.28 278.314 107.06 279.814 104.24C281.374 101.42 282.154 98.27 282.154 94.79C282.154 91.31 281.374 88.19 279.814 85.43C278.314 82.67 276.244 80.48 273.604 78.86C271.024 77.24 268.114 76.43 264.874 76.43C261.634 76.43 258.694 77.24 256.054 78.86C253.474 80.48 251.404 82.67 249.844 85.43C248.284 88.19 247.504 91.31 247.504 94.79C247.504 98.27 248.284 101.42 249.844 104.24C251.404 107.06 253.474 109.28 256.054 110.9C258.694 112.52 261.634 113.33 264.874 113.33ZM301.528 130.7V127.55C303.328 127.07 304.648 126.14 305.488 124.76C306.328 123.38 306.748 121.46 306.748 119H303.328V109.1H310.528V116.66C310.528 120.56 309.778 123.68 308.278 126.02C306.778 128.42 304.528 129.98 301.528 130.7ZM341.799 119V51.95H348.999V119H341.799ZM364.106 72.65V69.5C365.906 69.02 367.196 68.15 367.976 66.89C368.816 65.57 369.266 63.89 369.326 61.85H365.906V51.95H373.106V59.51C373.106 62.99 372.356 65.87 370.856 68.15C369.356 70.43 367.106 71.93 364.106 72.65ZM388.094 119V70.76H394.844V79.94L393.764 78.59C395.084 75.77 397.034 73.58 399.614 72.02C402.254 70.46 405.134 69.68 408.254 69.68C411.974 69.68 415.334 70.73 418.334 72.83C421.334 74.93 423.464 77.66 424.724 81.02L422.834 81.11C424.034 77.39 426.104 74.57 429.044 72.65C432.044 70.67 435.344 69.68 438.944 69.68C442.184 69.68 445.154 70.46 447.854 72.02C450.614 73.58 452.804 75.74 454.424 78.5C456.104 81.2 456.944 84.26 456.944 87.68V119H450.194V90.29C450.194 87.35 449.654 84.86 448.574 82.82C447.554 80.78 446.144 79.22 444.344 78.14C442.544 77 440.474 76.43 438.134 76.43C435.854 76.43 433.784 77 431.924 78.14C430.064 79.22 428.594 80.81 427.514 82.91C426.434 84.95 425.894 87.41 425.894 90.29V119H419.144V90.29C419.144 87.35 418.604 84.86 417.524 82.82C416.504 80.78 415.094 79.22 413.294 78.14C411.494 77 409.424 76.43 407.084 76.43C404.744 76.43 402.644 77 400.784 78.14C398.984 79.22 397.544 80.81 396.464 82.91C395.384 84.95 394.844 87.41 394.844 90.29V119H388.094Z" fill="#D2D2D2"/>
<path d="M472.802 136.1V42.95H480.002V136.1H472.802Z" fill="white" fill-opacity="0.3"/>
<rect x="2" y="156.5" width="14" height="23" fill="#D2D2D2" stroke="#D2D2D2" stroke-width="3"/>
<rect x="2" y="1.5" width="14" height="23" fill="#D2D2D2" stroke="#D2D2D2" stroke-width="3"/>
<rect x="518" y="156.5" width="12" height="23" fill="#D2D2D2" stroke="#D2D2D2" stroke-width="3"/>
<rect x="518" y="1.5" width="12" height="23" fill="#D2D2D2" stroke="#D2D2D2" stroke-width="3"/>
<path d="M533.966 216L524 170L566 193.719L546.068 198.031L533.966 216Z" fill="black" stroke="white" stroke-width="3"/>
</svg>
