<svg width="25" height="24" viewBox="0 0 25 24" fill="none" xmlns="http://www.w3.org/2000/svg">
<path d="M16.0701 3.34402L14.6421 4.12502L16.0701 4.90602L16.8511 6.33402L17.6321 4.90602L19.0601 4.12502L17.6321 3.34402L16.8521 1.91602L16.0701 3.34402ZM2.22607 12C2.22607 6.47702 6.70307 2.00002 12.2261 2.00002H13.9601L13.0921 3.50002C12.5131 4.50002 12.2261 5.68902 12.2261 7.00002C12.2259 8.03363 12.4547 9.05446 12.8959 9.98917C13.3371 10.9239 13.9799 11.7493 14.778 12.4061C15.5761 13.0629 16.5097 13.5348 17.5119 13.7879C18.514 14.041 19.5598 14.0691 20.5741 13.87L22.2561 13.543L21.7131 15.169C21.0483 17.1587 19.7745 18.889 18.0721 20.1149C16.3697 21.3408 14.3249 22.0003 12.2271 22C6.70407 22 2.22607 17.523 2.22607 12ZM20.7271 6.41602L21.6411 8.08602L23.3101 9.00002L21.6401 9.91402L20.7261 11.584L19.8131 9.91402L18.1431 9.00002L19.8131 8.08602L20.7271 6.41602Z" fill="white"/>
</svg>
