<svg width="24" height="24" viewBox="0 0 24 24" fill="none" xmlns="http://www.w3.org/2000/svg">
<path d="M10.999 -0.00390625H13.003V2.00009H10.999V-0.00390625ZM4.22302 2.80309L5.64002 4.22009L4.22302 5.63709L2.80602 4.22009L4.22302 2.80309ZM19.779 2.80309L21.196 4.22009L19.779 5.63709L18.362 4.22009L19.779 2.80309ZM12 6.00009C10.4087 6.00009 8.8826 6.63224 7.75738 7.75745C6.63216 8.88267 6.00002 10.4088 6.00002 12.0001C6.00002 13.5914 6.63216 15.1175 7.75738 16.2427C8.8826 17.368 10.4087 18.0001 12 18.0001C13.5913 18.0001 15.1174 17.368 16.2427 16.2427C17.3679 15.1175 18 13.5914 18 12.0001C18 10.4088 17.3679 8.88267 16.2427 7.75745C15.1174 6.63224 13.5913 6.00009 12 6.00009ZM4.00002 12.0001C4.00002 9.87836 4.84288 7.84353 6.34317 6.34324C7.84346 4.84295 9.87829 4.00009 12 4.00009C14.1218 4.00009 16.1566 4.84295 17.6569 6.34324C19.1572 7.84353 20 9.87836 20 12.0001C20 14.1218 19.1572 16.1567 17.6569 17.6569C16.1566 19.1572 14.1218 20.0001 12 20.0001C9.87829 20.0001 7.84346 19.1572 6.34317 17.6569C4.84288 16.1567 4.00002 14.1218 4.00002 12.0001ZM-0.000976562 10.9961H2.00302V13.0001H-0.000976562V10.9961ZM21.999 10.9961H24.003V13.0001H21.999V10.9961ZM4.22302 18.3601L5.64002 19.7771L4.22302 21.1951L2.80602 19.7771L4.22302 18.3601ZM19.779 18.3601L21.196 19.7771L19.779 21.1941L18.362 19.7771L19.779 18.3601ZM11 21.9971H13.004V24.0001H11V21.9971Z" fill="black"/>
</svg>
